<mxfile host="app.diagrams.net" agent="Mozilla/5.0 (Windows NT 10.0; Win64; x64) AppleWebKit/537.36 (KHTML, like Gecko) Chrome/131.0.0.0 Safari/537.36" version="25.0.3">
  <diagram id="u_gP0Yi864Foy7NjRsBo" name="Page-1">
    <mxGraphModel dx="2045" dy="-512" grid="1" gridSize="10" guides="1" tooltips="1" connect="1" arrows="1" fold="1" page="1" pageScale="1" pageWidth="850" pageHeight="1100" math="0" shadow="0">
      <root>
        <mxCell id="0" />
        <mxCell id="1" parent="0" />
        <mxCell id="J9iAy3apQVE2GlNHFhud-1" value="1" style="rounded=0;whiteSpace=wrap;html=1;" vertex="1" parent="1">
          <mxGeometry x="-320" y="1400" width="40" height="40" as="geometry" />
        </mxCell>
        <mxCell id="J9iAy3apQVE2GlNHFhud-2" value="2" style="rounded=0;whiteSpace=wrap;html=1;" vertex="1" parent="1">
          <mxGeometry x="-320" y="1440" width="40" height="40" as="geometry" />
        </mxCell>
        <mxCell id="J9iAy3apQVE2GlNHFhud-3" value="3" style="rounded=0;whiteSpace=wrap;html=1;" vertex="1" parent="1">
          <mxGeometry x="-320" y="1480" width="40" height="40" as="geometry" />
        </mxCell>
        <mxCell id="J9iAy3apQVE2GlNHFhud-4" value="4" style="rounded=0;whiteSpace=wrap;html=1;" vertex="1" parent="1">
          <mxGeometry x="-320" y="1520" width="40" height="40" as="geometry" />
        </mxCell>
        <mxCell id="J9iAy3apQVE2GlNHFhud-5" value="5" style="rounded=0;whiteSpace=wrap;html=1;" vertex="1" parent="1">
          <mxGeometry x="-320" y="1560" width="40" height="40" as="geometry" />
        </mxCell>
        <mxCell id="J9iAy3apQVE2GlNHFhud-6" value="6" style="rounded=0;whiteSpace=wrap;html=1;" vertex="1" parent="1">
          <mxGeometry x="-320" y="1600" width="40" height="40" as="geometry" />
        </mxCell>
        <mxCell id="J9iAy3apQVE2GlNHFhud-7" value="7" style="rounded=0;whiteSpace=wrap;html=1;" vertex="1" parent="1">
          <mxGeometry x="-320" y="1640" width="40" height="40" as="geometry" />
        </mxCell>
        <mxCell id="J9iAy3apQVE2GlNHFhud-8" value="8" style="rounded=0;whiteSpace=wrap;html=1;" vertex="1" parent="1">
          <mxGeometry x="-320" y="1680" width="40" height="40" as="geometry" />
        </mxCell>
        <mxCell id="J9iAy3apQVE2GlNHFhud-9" value="9" style="rounded=0;whiteSpace=wrap;html=1;" vertex="1" parent="1">
          <mxGeometry x="-320" y="1720" width="40" height="40" as="geometry" />
        </mxCell>
        <mxCell id="J9iAy3apQVE2GlNHFhud-10" value="" style="endArrow=classic;html=1;rounded=0;entryX=0;entryY=0.25;entryDx=0;entryDy=0;" edge="1" parent="1" target="J9iAy3apQVE2GlNHFhud-12">
          <mxGeometry width="50" height="50" relative="1" as="geometry">
            <mxPoint x="-280" y="1410" as="sourcePoint" />
            <mxPoint x="-115" y="1455" as="targetPoint" />
            <Array as="points">
              <mxPoint x="-260" y="1410" />
              <mxPoint x="-260" y="1430" />
            </Array>
          </mxGeometry>
        </mxCell>
        <mxCell id="J9iAy3apQVE2GlNHFhud-11" value="" style="endArrow=classic;html=1;rounded=0;exitX=1;exitY=0.5;exitDx=0;exitDy=0;entryX=0;entryY=0.75;entryDx=0;entryDy=0;" edge="1" parent="1" target="J9iAy3apQVE2GlNHFhud-12">
          <mxGeometry width="50" height="50" relative="1" as="geometry">
            <mxPoint x="-280" y="1470" as="sourcePoint" />
            <mxPoint x="80" y="1530" as="targetPoint" />
            <Array as="points">
              <mxPoint x="-260" y="1470" />
              <mxPoint x="-260" y="1450" />
            </Array>
          </mxGeometry>
        </mxCell>
        <mxCell id="J9iAy3apQVE2GlNHFhud-12" value="+" style="rounded=0;whiteSpace=wrap;html=1;" vertex="1" parent="1">
          <mxGeometry x="-240" y="1420" width="50" height="40" as="geometry" />
        </mxCell>
        <mxCell id="J9iAy3apQVE2GlNHFhud-13" value="" style="triangle;whiteSpace=wrap;html=1;direction=north;" vertex="1" parent="1">
          <mxGeometry x="-220" y="1450" width="10" height="10" as="geometry" />
        </mxCell>
        <mxCell id="J9iAy3apQVE2GlNHFhud-30" value="" style="endArrow=classic;html=1;rounded=0;entryX=0;entryY=0.25;entryDx=0;entryDy=0;" edge="1" parent="1" target="J9iAy3apQVE2GlNHFhud-32">
          <mxGeometry width="50" height="50" relative="1" as="geometry">
            <mxPoint x="-280" y="1490" as="sourcePoint" />
            <mxPoint x="-115" y="1535" as="targetPoint" />
            <Array as="points">
              <mxPoint x="-260" y="1490" />
              <mxPoint x="-260" y="1510" />
            </Array>
          </mxGeometry>
        </mxCell>
        <mxCell id="J9iAy3apQVE2GlNHFhud-31" value="" style="endArrow=classic;html=1;rounded=0;exitX=1;exitY=0.5;exitDx=0;exitDy=0;entryX=0;entryY=0.75;entryDx=0;entryDy=0;" edge="1" parent="1" target="J9iAy3apQVE2GlNHFhud-32">
          <mxGeometry width="50" height="50" relative="1" as="geometry">
            <mxPoint x="-280" y="1550" as="sourcePoint" />
            <mxPoint x="80" y="1610" as="targetPoint" />
            <Array as="points">
              <mxPoint x="-260" y="1550" />
              <mxPoint x="-260" y="1530" />
            </Array>
          </mxGeometry>
        </mxCell>
        <mxCell id="J9iAy3apQVE2GlNHFhud-32" value="+" style="rounded=0;whiteSpace=wrap;html=1;" vertex="1" parent="1">
          <mxGeometry x="-240" y="1500" width="50" height="40" as="geometry" />
        </mxCell>
        <mxCell id="J9iAy3apQVE2GlNHFhud-33" value="" style="triangle;whiteSpace=wrap;html=1;direction=north;" vertex="1" parent="1">
          <mxGeometry x="-220" y="1530" width="10" height="10" as="geometry" />
        </mxCell>
        <mxCell id="J9iAy3apQVE2GlNHFhud-34" value="" style="endArrow=classic;html=1;rounded=0;entryX=0;entryY=0.25;entryDx=0;entryDy=0;" edge="1" parent="1" target="J9iAy3apQVE2GlNHFhud-36">
          <mxGeometry width="50" height="50" relative="1" as="geometry">
            <mxPoint x="-280" y="1570" as="sourcePoint" />
            <mxPoint x="-115" y="1615" as="targetPoint" />
            <Array as="points">
              <mxPoint x="-260" y="1570" />
              <mxPoint x="-260" y="1590" />
            </Array>
          </mxGeometry>
        </mxCell>
        <mxCell id="J9iAy3apQVE2GlNHFhud-35" value="" style="endArrow=classic;html=1;rounded=0;exitX=1;exitY=0.5;exitDx=0;exitDy=0;entryX=0;entryY=0.75;entryDx=0;entryDy=0;" edge="1" parent="1" target="J9iAy3apQVE2GlNHFhud-36">
          <mxGeometry width="50" height="50" relative="1" as="geometry">
            <mxPoint x="-280" y="1630" as="sourcePoint" />
            <mxPoint x="80" y="1690" as="targetPoint" />
            <Array as="points">
              <mxPoint x="-260" y="1630" />
              <mxPoint x="-260" y="1610" />
            </Array>
          </mxGeometry>
        </mxCell>
        <mxCell id="J9iAy3apQVE2GlNHFhud-36" value="+" style="rounded=0;whiteSpace=wrap;html=1;" vertex="1" parent="1">
          <mxGeometry x="-240" y="1580" width="50" height="40" as="geometry" />
        </mxCell>
        <mxCell id="J9iAy3apQVE2GlNHFhud-37" value="" style="triangle;whiteSpace=wrap;html=1;direction=north;" vertex="1" parent="1">
          <mxGeometry x="-220" y="1610" width="10" height="10" as="geometry" />
        </mxCell>
        <mxCell id="J9iAy3apQVE2GlNHFhud-38" value="" style="endArrow=classic;html=1;rounded=0;entryX=0;entryY=0.25;entryDx=0;entryDy=0;" edge="1" parent="1" target="J9iAy3apQVE2GlNHFhud-40">
          <mxGeometry width="50" height="50" relative="1" as="geometry">
            <mxPoint x="-280" y="1650" as="sourcePoint" />
            <mxPoint x="-115" y="1695" as="targetPoint" />
            <Array as="points">
              <mxPoint x="-260" y="1650" />
              <mxPoint x="-260" y="1670" />
            </Array>
          </mxGeometry>
        </mxCell>
        <mxCell id="J9iAy3apQVE2GlNHFhud-39" value="" style="endArrow=classic;html=1;rounded=0;exitX=1;exitY=0.5;exitDx=0;exitDy=0;entryX=0;entryY=0.75;entryDx=0;entryDy=0;" edge="1" parent="1" target="J9iAy3apQVE2GlNHFhud-40">
          <mxGeometry width="50" height="50" relative="1" as="geometry">
            <mxPoint x="-280" y="1710" as="sourcePoint" />
            <mxPoint x="80" y="1770" as="targetPoint" />
            <Array as="points">
              <mxPoint x="-260" y="1710" />
              <mxPoint x="-260" y="1690" />
            </Array>
          </mxGeometry>
        </mxCell>
        <mxCell id="J9iAy3apQVE2GlNHFhud-42" value="" style="group" vertex="1" connectable="0" parent="1">
          <mxGeometry x="-240" y="1660" width="50" height="40" as="geometry" />
        </mxCell>
        <mxCell id="J9iAy3apQVE2GlNHFhud-40" value="+" style="rounded=0;whiteSpace=wrap;html=1;" vertex="1" parent="J9iAy3apQVE2GlNHFhud-42">
          <mxGeometry width="50" height="40" as="geometry" />
        </mxCell>
        <mxCell id="J9iAy3apQVE2GlNHFhud-41" value="" style="triangle;whiteSpace=wrap;html=1;direction=north;" vertex="1" parent="J9iAy3apQVE2GlNHFhud-42">
          <mxGeometry x="20" y="30" width="10" height="10" as="geometry" />
        </mxCell>
        <mxCell id="J9iAy3apQVE2GlNHFhud-46" value="" style="endArrow=classic;html=1;rounded=0;entryX=0;entryY=0.25;entryDx=0;entryDy=0;" edge="1" parent="1" target="J9iAy3apQVE2GlNHFhud-48">
          <mxGeometry width="50" height="50" relative="1" as="geometry">
            <mxPoint x="-190" y="1440" as="sourcePoint" />
            <mxPoint x="-25" y="1485" as="targetPoint" />
            <Array as="points">
              <mxPoint x="-170" y="1440" />
              <mxPoint x="-170" y="1470" />
            </Array>
          </mxGeometry>
        </mxCell>
        <mxCell id="J9iAy3apQVE2GlNHFhud-47" value="" style="endArrow=classic;html=1;rounded=0;exitX=1;exitY=0.5;exitDx=0;exitDy=0;entryX=0;entryY=0.75;entryDx=0;entryDy=0;" edge="1" parent="1" target="J9iAy3apQVE2GlNHFhud-48">
          <mxGeometry width="50" height="50" relative="1" as="geometry">
            <mxPoint x="-190" y="1520" as="sourcePoint" />
            <mxPoint x="170" y="1560" as="targetPoint" />
            <Array as="points">
              <mxPoint x="-170" y="1520" />
              <mxPoint x="-170" y="1490" />
            </Array>
          </mxGeometry>
        </mxCell>
        <mxCell id="J9iAy3apQVE2GlNHFhud-48" value="+" style="rounded=0;whiteSpace=wrap;html=1;" vertex="1" parent="1">
          <mxGeometry x="-150" y="1460" width="50" height="40" as="geometry" />
        </mxCell>
        <mxCell id="J9iAy3apQVE2GlNHFhud-49" value="" style="triangle;whiteSpace=wrap;html=1;direction=north;" vertex="1" parent="1">
          <mxGeometry x="-130" y="1490" width="10" height="10" as="geometry" />
        </mxCell>
        <mxCell id="J9iAy3apQVE2GlNHFhud-51" value="" style="endArrow=classic;html=1;rounded=0;entryX=0;entryY=0.25;entryDx=0;entryDy=0;" edge="1" parent="1" target="J9iAy3apQVE2GlNHFhud-53">
          <mxGeometry width="50" height="50" relative="1" as="geometry">
            <mxPoint x="-190" y="1600" as="sourcePoint" />
            <mxPoint x="-25" y="1645" as="targetPoint" />
            <Array as="points">
              <mxPoint x="-170" y="1600" />
              <mxPoint x="-170" y="1630" />
            </Array>
          </mxGeometry>
        </mxCell>
        <mxCell id="J9iAy3apQVE2GlNHFhud-52" value="" style="endArrow=classic;html=1;rounded=0;exitX=1;exitY=0.5;exitDx=0;exitDy=0;entryX=0;entryY=0.75;entryDx=0;entryDy=0;" edge="1" parent="1" target="J9iAy3apQVE2GlNHFhud-53">
          <mxGeometry width="50" height="50" relative="1" as="geometry">
            <mxPoint x="-190" y="1680" as="sourcePoint" />
            <mxPoint x="170" y="1720" as="targetPoint" />
            <Array as="points">
              <mxPoint x="-170" y="1680" />
              <mxPoint x="-170" y="1650" />
            </Array>
          </mxGeometry>
        </mxCell>
        <mxCell id="J9iAy3apQVE2GlNHFhud-53" value="+" style="rounded=0;whiteSpace=wrap;html=1;" vertex="1" parent="1">
          <mxGeometry x="-150" y="1620" width="50" height="40" as="geometry" />
        </mxCell>
        <mxCell id="J9iAy3apQVE2GlNHFhud-54" value="" style="triangle;whiteSpace=wrap;html=1;direction=north;" vertex="1" parent="1">
          <mxGeometry x="-130" y="1650" width="10" height="10" as="geometry" />
        </mxCell>
        <mxCell id="J9iAy3apQVE2GlNHFhud-55" value="" style="rounded=0;whiteSpace=wrap;html=1;" vertex="1" parent="1">
          <mxGeometry x="-240" y="1720" width="50" height="40" as="geometry" />
        </mxCell>
        <mxCell id="J9iAy3apQVE2GlNHFhud-56" value="" style="triangle;whiteSpace=wrap;html=1;direction=north;" vertex="1" parent="1">
          <mxGeometry x="-220" y="1750" width="10" height="10" as="geometry" />
        </mxCell>
        <mxCell id="J9iAy3apQVE2GlNHFhud-58" value="" style="rounded=0;whiteSpace=wrap;html=1;" vertex="1" parent="1">
          <mxGeometry x="-150" y="1720" width="50" height="40" as="geometry" />
        </mxCell>
        <mxCell id="J9iAy3apQVE2GlNHFhud-59" value="" style="triangle;whiteSpace=wrap;html=1;direction=north;" vertex="1" parent="1">
          <mxGeometry x="-130" y="1750" width="10" height="10" as="geometry" />
        </mxCell>
        <mxCell id="J9iAy3apQVE2GlNHFhud-60" value="" style="endArrow=classic;html=1;rounded=0;exitX=1;exitY=0.5;exitDx=0;exitDy=0;entryX=0;entryY=0.5;entryDx=0;entryDy=0;" edge="1" parent="1" source="J9iAy3apQVE2GlNHFhud-9" target="J9iAy3apQVE2GlNHFhud-55">
          <mxGeometry width="50" height="50" relative="1" as="geometry">
            <mxPoint x="-210" y="1730" as="sourcePoint" />
            <mxPoint x="-160" y="1680" as="targetPoint" />
          </mxGeometry>
        </mxCell>
        <mxCell id="J9iAy3apQVE2GlNHFhud-61" value="" style="endArrow=classic;html=1;rounded=0;exitX=1;exitY=0.5;exitDx=0;exitDy=0;entryX=0;entryY=0.5;entryDx=0;entryDy=0;" edge="1" parent="1">
          <mxGeometry width="50" height="50" relative="1" as="geometry">
            <mxPoint x="-190" y="1739.83" as="sourcePoint" />
            <mxPoint x="-150" y="1739.83" as="targetPoint" />
          </mxGeometry>
        </mxCell>
        <mxCell id="J9iAy3apQVE2GlNHFhud-62" value="+" style="rounded=0;whiteSpace=wrap;html=1;" vertex="1" parent="1">
          <mxGeometry x="-60" y="1540" width="50" height="40" as="geometry" />
        </mxCell>
        <mxCell id="J9iAy3apQVE2GlNHFhud-63" value="" style="triangle;whiteSpace=wrap;html=1;direction=north;" vertex="1" parent="1">
          <mxGeometry x="-40" y="1570" width="10" height="10" as="geometry" />
        </mxCell>
        <mxCell id="J9iAy3apQVE2GlNHFhud-64" value="" style="endArrow=classic;html=1;rounded=0;exitX=1;exitY=0.5;exitDx=0;exitDy=0;entryX=0;entryY=0.25;entryDx=0;entryDy=0;" edge="1" parent="1" source="J9iAy3apQVE2GlNHFhud-48" target="J9iAy3apQVE2GlNHFhud-62">
          <mxGeometry width="50" height="50" relative="1" as="geometry">
            <mxPoint x="-170" y="1600" as="sourcePoint" />
            <mxPoint x="-120" y="1550" as="targetPoint" />
            <Array as="points">
              <mxPoint x="-80" y="1480" />
              <mxPoint x="-80" y="1550" />
            </Array>
          </mxGeometry>
        </mxCell>
        <mxCell id="J9iAy3apQVE2GlNHFhud-65" value="" style="endArrow=classic;html=1;rounded=0;entryX=0;entryY=0.75;entryDx=0;entryDy=0;exitX=1;exitY=0.5;exitDx=0;exitDy=0;" edge="1" parent="1" source="J9iAy3apQVE2GlNHFhud-53" target="J9iAy3apQVE2GlNHFhud-62">
          <mxGeometry width="50" height="50" relative="1" as="geometry">
            <mxPoint x="-170" y="1600" as="sourcePoint" />
            <mxPoint x="-120" y="1550" as="targetPoint" />
            <Array as="points">
              <mxPoint x="-80" y="1640" />
              <mxPoint x="-80" y="1570" />
            </Array>
          </mxGeometry>
        </mxCell>
        <mxCell id="J9iAy3apQVE2GlNHFhud-66" value="" style="rounded=0;whiteSpace=wrap;html=1;" vertex="1" parent="1">
          <mxGeometry x="-60" y="1720" width="50" height="40" as="geometry" />
        </mxCell>
        <mxCell id="J9iAy3apQVE2GlNHFhud-67" value="" style="triangle;whiteSpace=wrap;html=1;direction=north;" vertex="1" parent="1">
          <mxGeometry x="-40" y="1750" width="10" height="10" as="geometry" />
        </mxCell>
        <mxCell id="J9iAy3apQVE2GlNHFhud-68" value="" style="endArrow=classic;html=1;rounded=0;exitX=1;exitY=0.5;exitDx=0;exitDy=0;entryX=0;entryY=0.5;entryDx=0;entryDy=0;" edge="1" parent="1">
          <mxGeometry width="50" height="50" relative="1" as="geometry">
            <mxPoint x="-100" y="1739.83" as="sourcePoint" />
            <mxPoint x="-60" y="1739.83" as="targetPoint" />
          </mxGeometry>
        </mxCell>
        <mxCell id="J9iAy3apQVE2GlNHFhud-69" value="+" style="rounded=0;whiteSpace=wrap;html=1;" vertex="1" parent="1">
          <mxGeometry x="40" y="1640" width="50" height="40" as="geometry" />
        </mxCell>
        <mxCell id="J9iAy3apQVE2GlNHFhud-70" value="" style="triangle;whiteSpace=wrap;html=1;direction=north;" vertex="1" parent="1">
          <mxGeometry x="60" y="1670" width="10" height="10" as="geometry" />
        </mxCell>
        <mxCell id="J9iAy3apQVE2GlNHFhud-71" value="" style="endArrow=classic;html=1;rounded=0;exitX=1;exitY=0.5;exitDx=0;exitDy=0;entryX=0;entryY=0.25;entryDx=0;entryDy=0;" edge="1" parent="1" source="J9iAy3apQVE2GlNHFhud-62" target="J9iAy3apQVE2GlNHFhud-69">
          <mxGeometry width="50" height="50" relative="1" as="geometry">
            <mxPoint x="50" y="1630" as="sourcePoint" />
            <mxPoint x="100" y="1580" as="targetPoint" />
            <Array as="points">
              <mxPoint y="1560" />
              <mxPoint x="20" y="1560" />
              <mxPoint x="20" y="1650" />
            </Array>
          </mxGeometry>
        </mxCell>
        <mxCell id="J9iAy3apQVE2GlNHFhud-72" value="" style="endArrow=classic;html=1;rounded=0;exitX=1;exitY=0.5;exitDx=0;exitDy=0;entryX=0;entryY=0.75;entryDx=0;entryDy=0;" edge="1" parent="1" source="J9iAy3apQVE2GlNHFhud-66" target="J9iAy3apQVE2GlNHFhud-69">
          <mxGeometry width="50" height="50" relative="1" as="geometry">
            <mxPoint x="50" y="1740" as="sourcePoint" />
            <mxPoint x="100" y="1690" as="targetPoint" />
            <Array as="points">
              <mxPoint x="20" y="1740" />
              <mxPoint x="20" y="1670" />
            </Array>
          </mxGeometry>
        </mxCell>
        <mxCell id="J9iAy3apQVE2GlNHFhud-73" value="" style="rounded=0;whiteSpace=wrap;html=1;" vertex="1" parent="1">
          <mxGeometry x="120" y="1640" width="45" height="40" as="geometry" />
        </mxCell>
        <mxCell id="J9iAy3apQVE2GlNHFhud-74" value="" style="triangle;whiteSpace=wrap;html=1;direction=north;" vertex="1" parent="1">
          <mxGeometry x="137.5" y="1670" width="10" height="10" as="geometry" />
        </mxCell>
        <mxCell id="J9iAy3apQVE2GlNHFhud-75" value="" style="edgeStyle=orthogonalEdgeStyle;rounded=0;orthogonalLoop=1;jettySize=auto;html=1;" edge="1" parent="1" source="J9iAy3apQVE2GlNHFhud-76" target="J9iAy3apQVE2GlNHFhud-82">
          <mxGeometry relative="1" as="geometry" />
        </mxCell>
        <mxCell id="J9iAy3apQVE2GlNHFhud-76" value="" style="rounded=0;whiteSpace=wrap;html=1;" vertex="1" parent="1">
          <mxGeometry x="200" y="1640" width="45" height="40" as="geometry" />
        </mxCell>
        <mxCell id="J9iAy3apQVE2GlNHFhud-77" value="" style="triangle;whiteSpace=wrap;html=1;direction=north;" vertex="1" parent="1">
          <mxGeometry x="217.5" y="1670" width="10" height="10" as="geometry" />
        </mxCell>
        <mxCell id="J9iAy3apQVE2GlNHFhud-78" value="" style="rounded=0;whiteSpace=wrap;html=1;" vertex="1" parent="1">
          <mxGeometry x="280" y="1640" width="45" height="40" as="geometry" />
        </mxCell>
        <mxCell id="J9iAy3apQVE2GlNHFhud-79" value="" style="triangle;whiteSpace=wrap;html=1;direction=north;" vertex="1" parent="1">
          <mxGeometry x="297.5" y="1670" width="10" height="10" as="geometry" />
        </mxCell>
        <mxCell id="J9iAy3apQVE2GlNHFhud-80" value="" style="endArrow=classic;html=1;rounded=0;exitX=1;exitY=0.5;exitDx=0;exitDy=0;entryX=0;entryY=0.5;entryDx=0;entryDy=0;" edge="1" parent="1" target="J9iAy3apQVE2GlNHFhud-76">
          <mxGeometry width="50" height="50" relative="1" as="geometry">
            <mxPoint x="165" y="1659.71" as="sourcePoint" />
            <mxPoint x="195" y="1659.71" as="targetPoint" />
          </mxGeometry>
        </mxCell>
        <mxCell id="J9iAy3apQVE2GlNHFhud-81" value="" style="endArrow=classic;html=1;rounded=0;exitX=1;exitY=0.5;exitDx=0;exitDy=0;entryX=0;entryY=0.5;entryDx=0;entryDy=0;" edge="1" parent="1">
          <mxGeometry width="50" height="50" relative="1" as="geometry">
            <mxPoint x="245" y="1660" as="sourcePoint" />
            <mxPoint x="280" y="1660.29" as="targetPoint" />
          </mxGeometry>
        </mxCell>
        <mxCell id="J9iAy3apQVE2GlNHFhud-82" value="" style="rounded=0;whiteSpace=wrap;html=1;" vertex="1" parent="1">
          <mxGeometry x="357.5" y="1640" width="45" height="40" as="geometry" />
        </mxCell>
        <mxCell id="J9iAy3apQVE2GlNHFhud-83" value="" style="triangle;whiteSpace=wrap;html=1;direction=north;" vertex="1" parent="1">
          <mxGeometry x="375" y="1670" width="10" height="10" as="geometry" />
        </mxCell>
        <mxCell id="J9iAy3apQVE2GlNHFhud-84" value="" style="endArrow=classic;html=1;rounded=0;exitX=1;exitY=0.5;exitDx=0;exitDy=0;entryX=0;entryY=0.5;entryDx=0;entryDy=0;" edge="1" parent="1" target="J9iAy3apQVE2GlNHFhud-82">
          <mxGeometry width="50" height="50" relative="1" as="geometry">
            <mxPoint x="325" y="1659.71" as="sourcePoint" />
            <mxPoint x="360" y="1660" as="targetPoint" />
          </mxGeometry>
        </mxCell>
        <mxCell id="J9iAy3apQVE2GlNHFhud-85" value="" style="rounded=0;whiteSpace=wrap;html=1;" vertex="1" parent="1">
          <mxGeometry x="442.5" y="1640" width="45" height="40" as="geometry" />
        </mxCell>
        <mxCell id="J9iAy3apQVE2GlNHFhud-86" value="" style="triangle;whiteSpace=wrap;html=1;direction=north;" vertex="1" parent="1">
          <mxGeometry x="460" y="1670" width="10" height="10" as="geometry" />
        </mxCell>
        <mxCell id="J9iAy3apQVE2GlNHFhud-87" value="" style="endArrow=classic;html=1;rounded=0;exitX=1;exitY=0.5;exitDx=0;exitDy=0;entryX=0;entryY=0.5;entryDx=0;entryDy=0;" edge="1" parent="1" source="J9iAy3apQVE2GlNHFhud-82" target="J9iAy3apQVE2GlNHFhud-85">
          <mxGeometry width="50" height="50" relative="1" as="geometry">
            <mxPoint x="400" y="1660" as="sourcePoint" />
            <mxPoint x="440" y="1660" as="targetPoint" />
          </mxGeometry>
        </mxCell>
        <mxCell id="J9iAy3apQVE2GlNHFhud-88" value="" style="endArrow=classic;html=1;rounded=0;exitX=1;exitY=0.5;exitDx=0;exitDy=0;entryX=0;entryY=0.5;entryDx=0;entryDy=0;" edge="1" parent="1" source="J9iAy3apQVE2GlNHFhud-69" target="J9iAy3apQVE2GlNHFhud-73">
          <mxGeometry width="50" height="50" relative="1" as="geometry">
            <mxPoint x="70" y="1540" as="sourcePoint" />
            <mxPoint x="120" y="1490" as="targetPoint" />
          </mxGeometry>
        </mxCell>
        <mxCell id="J9iAy3apQVE2GlNHFhud-95" value="" style="rounded=0;whiteSpace=wrap;html=1;" vertex="1" parent="1">
          <mxGeometry x="710" y="1640" width="45" height="40" as="geometry" />
        </mxCell>
        <mxCell id="J9iAy3apQVE2GlNHFhud-96" value="" style="triangle;whiteSpace=wrap;html=1;direction=north;" vertex="1" parent="1">
          <mxGeometry x="730" y="1670" width="10" height="10" as="geometry" />
        </mxCell>
        <mxCell id="J9iAy3apQVE2GlNHFhud-97" value="" style="rounded=0;whiteSpace=wrap;html=1;" vertex="1" parent="1">
          <mxGeometry x="800" y="1640" width="45" height="40" as="geometry" />
        </mxCell>
        <mxCell id="J9iAy3apQVE2GlNHFhud-98" value="" style="triangle;whiteSpace=wrap;html=1;direction=north;" vertex="1" parent="1">
          <mxGeometry x="817.5" y="1670" width="10" height="10" as="geometry" />
        </mxCell>
        <mxCell id="J9iAy3apQVE2GlNHFhud-100" value="" style="endArrow=classic;html=1;rounded=0;exitX=1;exitY=0.5;exitDx=0;exitDy=0;entryX=0;entryY=0.5;entryDx=0;entryDy=0;" edge="1" parent="1">
          <mxGeometry width="50" height="50" relative="1" as="geometry">
            <mxPoint x="487.5" y="1659.66" as="sourcePoint" />
            <mxPoint x="527.5" y="1659.66" as="targetPoint" />
          </mxGeometry>
        </mxCell>
        <mxCell id="J9iAy3apQVE2GlNHFhud-101" value="" style="group" vertex="1" connectable="0" parent="1">
          <mxGeometry x="530" y="1640" width="45" height="40" as="geometry" />
        </mxCell>
        <mxCell id="J9iAy3apQVE2GlNHFhud-91" value="" style="rounded=0;whiteSpace=wrap;html=1;" vertex="1" parent="J9iAy3apQVE2GlNHFhud-101">
          <mxGeometry width="45" height="40" as="geometry" />
        </mxCell>
        <mxCell id="J9iAy3apQVE2GlNHFhud-92" value="" style="triangle;whiteSpace=wrap;html=1;direction=north;" vertex="1" parent="J9iAy3apQVE2GlNHFhud-101">
          <mxGeometry x="17.5" y="30" width="10" height="10" as="geometry" />
        </mxCell>
        <mxCell id="J9iAy3apQVE2GlNHFhud-102" value="" style="group" vertex="1" connectable="0" parent="1">
          <mxGeometry x="620" y="1640" width="45" height="40" as="geometry" />
        </mxCell>
        <mxCell id="J9iAy3apQVE2GlNHFhud-93" value="" style="rounded=0;whiteSpace=wrap;html=1;" vertex="1" parent="J9iAy3apQVE2GlNHFhud-102">
          <mxGeometry width="45" height="40" as="geometry" />
        </mxCell>
        <mxCell id="J9iAy3apQVE2GlNHFhud-94" value="" style="triangle;whiteSpace=wrap;html=1;direction=north;" vertex="1" parent="J9iAy3apQVE2GlNHFhud-102">
          <mxGeometry x="17.5" y="30" width="10" height="10" as="geometry" />
        </mxCell>
        <mxCell id="J9iAy3apQVE2GlNHFhud-104" value="" style="endArrow=classic;html=1;rounded=0;exitX=1;exitY=0.5;exitDx=0;exitDy=0;entryX=0;entryY=0.5;entryDx=0;entryDy=0;" edge="1" parent="1" target="J9iAy3apQVE2GlNHFhud-93">
          <mxGeometry width="50" height="50" relative="1" as="geometry">
            <mxPoint x="575" y="1660" as="sourcePoint" />
            <mxPoint x="615" y="1660" as="targetPoint" />
          </mxGeometry>
        </mxCell>
        <mxCell id="J9iAy3apQVE2GlNHFhud-105" value="" style="endArrow=classic;html=1;rounded=0;exitX=1;exitY=0.5;exitDx=0;exitDy=0;entryX=0;entryY=0.5;entryDx=0;entryDy=0;" edge="1" parent="1">
          <mxGeometry width="50" height="50" relative="1" as="geometry">
            <mxPoint x="665" y="1660" as="sourcePoint" />
            <mxPoint x="710" y="1660" as="targetPoint" />
          </mxGeometry>
        </mxCell>
        <mxCell id="J9iAy3apQVE2GlNHFhud-106" value="" style="endArrow=classic;html=1;rounded=0;exitX=1;exitY=0.5;exitDx=0;exitDy=0;entryX=0;entryY=0.5;entryDx=0;entryDy=0;" edge="1" parent="1">
          <mxGeometry width="50" height="50" relative="1" as="geometry">
            <mxPoint x="755" y="1660" as="sourcePoint" />
            <mxPoint x="800" y="1660" as="targetPoint" />
          </mxGeometry>
        </mxCell>
        <mxCell id="J9iAy3apQVE2GlNHFhud-107" value="0" style="text;html=1;align=center;verticalAlign=middle;whiteSpace=wrap;rounded=0;" vertex="1" parent="1">
          <mxGeometry x="40" y="1580" width="60" height="30" as="geometry" />
        </mxCell>
        <mxCell id="J9iAy3apQVE2GlNHFhud-108" value="1" style="text;html=1;align=center;verticalAlign=middle;whiteSpace=wrap;rounded=0;" vertex="1" parent="1">
          <mxGeometry x="125" y="1580" width="60" height="30" as="geometry" />
        </mxCell>
        <mxCell id="J9iAy3apQVE2GlNHFhud-109" value="2" style="text;html=1;align=center;verticalAlign=middle;whiteSpace=wrap;rounded=0;" vertex="1" parent="1">
          <mxGeometry x="207.5" y="1580" width="60" height="30" as="geometry" />
        </mxCell>
        <mxCell id="J9iAy3apQVE2GlNHFhud-110" value="3" style="text;html=1;align=center;verticalAlign=middle;whiteSpace=wrap;rounded=0;" vertex="1" parent="1">
          <mxGeometry x="280" y="1580" width="60" height="30" as="geometry" />
        </mxCell>
        <mxCell id="J9iAy3apQVE2GlNHFhud-111" value="4" style="text;html=1;align=center;verticalAlign=middle;whiteSpace=wrap;rounded=0;" vertex="1" parent="1">
          <mxGeometry x="355" y="1580" width="60" height="30" as="geometry" />
        </mxCell>
        <mxCell id="J9iAy3apQVE2GlNHFhud-112" value="5" style="text;html=1;align=center;verticalAlign=middle;whiteSpace=wrap;rounded=0;" vertex="1" parent="1">
          <mxGeometry x="430" y="1580" width="60" height="30" as="geometry" />
        </mxCell>
        <mxCell id="J9iAy3apQVE2GlNHFhud-113" value="6" style="text;html=1;align=center;verticalAlign=middle;whiteSpace=wrap;rounded=0;" vertex="1" parent="1">
          <mxGeometry x="510" y="1580" width="60" height="30" as="geometry" />
        </mxCell>
        <mxCell id="J9iAy3apQVE2GlNHFhud-114" value="7" style="text;html=1;align=center;verticalAlign=middle;whiteSpace=wrap;rounded=0;" vertex="1" parent="1">
          <mxGeometry x="605" y="1580" width="60" height="30" as="geometry" />
        </mxCell>
        <mxCell id="J9iAy3apQVE2GlNHFhud-115" value="8" style="text;html=1;align=center;verticalAlign=middle;whiteSpace=wrap;rounded=0;" vertex="1" parent="1">
          <mxGeometry x="705" y="1580" width="60" height="30" as="geometry" />
        </mxCell>
        <mxCell id="J9iAy3apQVE2GlNHFhud-116" value="9" style="text;html=1;align=center;verticalAlign=middle;whiteSpace=wrap;rounded=0;" vertex="1" parent="1">
          <mxGeometry x="792.5" y="1580" width="60" height="30" as="geometry" />
        </mxCell>
        <mxCell id="J9iAy3apQVE2GlNHFhud-117" value="10" style="rounded=0;whiteSpace=wrap;html=1;fillColor=#dae8fc;strokeColor=#6c8ebf;" vertex="1" parent="1">
          <mxGeometry x="500" y="1160" width="40" height="40" as="geometry" />
        </mxCell>
        <mxCell id="J9iAy3apQVE2GlNHFhud-118" value="20" style="rounded=0;whiteSpace=wrap;html=1;fillColor=#dae8fc;strokeColor=#6c8ebf;" vertex="1" parent="1">
          <mxGeometry x="540" y="1160" width="40" height="40" as="geometry" />
        </mxCell>
        <mxCell id="J9iAy3apQVE2GlNHFhud-119" value="30&lt;span style=&quot;color: rgba(0, 0, 0, 0); font-family: monospace; font-size: 0px; text-align: start; text-wrap-mode: nowrap;&quot;&gt;%3CmxGraphModel%3E%3Croot%3E%3CmxCell%20id%3D%220%22%2F%3E%3CmxCell%20id%3D%221%22%20parent%3D%220%22%2F%3E%3CmxCell%20id%3D%222%22%20value%3D%2225%22%20style%3D%22rounded%3D0%3BwhiteSpace%3Dwrap%3Bhtml%3D1%3B%22%20vertex%3D%221%22%20parent%3D%221%22%3E%3CmxGeometry%20x%3D%22660%22%20y%3D%221360%22%20width%3D%2240%22%20height%3D%2240%22%20as%3D%22geometry%22%2F%3E%3C%2FmxCell%3E%3CmxCell%20id%3D%223%22%20value%3D%2224%22%20style%3D%22rounded%3D0%3BwhiteSpace%3Dwrap%3Bhtml%3D1%3B%22%20vertex%3D%221%22%20parent%3D%221%22%3E%3CmxGeometry%20x%3D%22620%22%20y%3D%221360%22%20width%3D%2240%22%20height%3D%2240%22%20as%3D%22geometry%22%2F%3E%3C%2FmxCell%3E%3CmxCell%20id%3D%224%22%20value%3D%2223%22%20style%3D%22rounded%3D0%3BwhiteSpace%3Dwrap%3Bhtml%3D1%3B%22%20vertex%3D%221%22%20parent%3D%221%22%3E%3CmxGeometry%20x%3D%22580%22%20y%3D%221360%22%20width%3D%2240%22%20height%3D%2240%22%20as%3D%22geometry%22%2F%3E%3C%2FmxCell%3E%3CmxCell%20id%3D%225%22%20value%3D%2222%22%20style%3D%22rounded%3D0%3BwhiteSpace%3Dwrap%3Bhtml%3D1%3B%22%20vertex%3D%221%22%20parent%3D%221%22%3E%3CmxGeometry%20x%3D%22540%22%20y%3D%221360%22%20width%3D%2240%22%20height%3D%2240%22%20as%3D%22geometry%22%2F%3E%3C%2FmxCell%3E%3CmxCell%20id%3D%226%22%20value%3D%2210%22%20style%3D%22rounded%3D0%3BwhiteSpace%3Dwrap%3Bhtml%3D1%3B%22%20vertex%3D%221%22%20parent%3D%221%22%3E%3CmxGeometry%20x%3D%22500%22%20y%3D%221360%22%20width%3D%2240%22%20height%3D%2240%22%20as%3D%22geometry%22%2F%3E%3C%2FmxCell%3E%3CmxCell%20id%3D%227%22%20value%3D%2225%22%20style%3D%22rounded%3D0%3BwhiteSpace%3Dwrap%3Bhtml%3D1%3B%22%20vertex%3D%221%22%20parent%3D%221%22%3E%3CmxGeometry%20x%3D%22700%22%20y%3D%221360%22%20width%3D%2240%22%20height%3D%2240%22%20as%3D%22geometry%22%2F%3E%3C%2FmxCell%3E%3CmxCell%20id%3D%228%22%20value%3D%2225%22%20style%3D%22rounded%3D0%3BwhiteSpace%3Dwrap%3Bhtml%3D1%3B%22%20vertex%3D%221%22%20parent%3D%221%22%3E%3CmxGeometry%20x%3D%22740%22%20y%3D%221360%22%20width%3D%2240%22%20height%3D%2240%22%20as%3D%22geometry%22%2F%3E%3C%2FmxCell%3E%3CmxCell%20id%3D%229%22%20value%3D%2225%22%20style%3D%22rounded%3D0%3BwhiteSpace%3Dwrap%3Bhtml%3D1%3B%22%20vertex%3D%221%22%20parent%3D%221%22%3E%3CmxGeometry%20x%3D%22660%22%20y%3D%221400%22%20width%3D%2240%22%20height%3D%2240%22%20as%3D%22geometry%22%2F%3E%3C%2FmxCell%3E%3CmxCell%20id%3D%2210%22%20value%3D%2224%22%20style%3D%22rounded%3D0%3BwhiteSpace%3Dwrap%3Bhtml%3D1%3B%22%20vertex%3D%221%22%20parent%3D%221%22%3E%3CmxGeometry%20x%3D%22620%22%20y%3D%221400%22%20width%3D%2240%22%20height%3D%2240%22%20as%3D%22geometry%22%2F%3E%3C%2FmxCell%3E%3CmxCell%20id%3D%2211%22%20value%3D%2223%22%20style%3D%22rounded%3D0%3BwhiteSpace%3Dwrap%3Bhtml%3D1%3B%22%20vertex%3D%221%22%20parent%3D%221%22%3E%3CmxGeometry%20x%3D%22580%22%20y%3D%221400%22%20width%3D%2240%22%20height%3D%2240%22%20as%3D%22geometry%22%2F%3E%3C%2FmxCell%3E%3CmxCell%20id%3D%2212%22%20value%3D%2222%22%20style%3D%22rounded%3D0%3BwhiteSpace%3Dwrap%3Bhtml%3D1%3B%22%20vertex%3D%221%22%20parent%3D%221%22%3E%3CmxGeometry%20x%3D%22540%22%20y%3D%221400%22%20width%3D%2240%22%20height%3D%2240%22%20as%3D%22geometry%22%2F%3E%3C%2FmxCell%3E%3CmxCell%20id%3D%2213%22%20value%3D%2210%22%20style%3D%22rounded%3D0%3BwhiteSpace%3Dwrap%3Bhtml%3D1%3B%22%20vertex%3D%221%22%20parent%3D%221%22%3E%3CmxGeometry%20x%3D%22500%22%20y%3D%221400%22%20width%3D%2240%22%20height%3D%2240%22%20as%3D%22geometry%22%2F%3E%3C%2FmxCell%3E%3CmxCell%20id%3D%2214%22%20value%3D%2225%22%20style%3D%22rounded%3D0%3BwhiteSpace%3Dwrap%3Bhtml%3D1%3B%22%20vertex%3D%221%22%20parent%3D%221%22%3E%3CmxGeometry%20x%3D%22700%22%20y%3D%221400%22%20width%3D%2240%22%20height%3D%2240%22%20as%3D%22geometry%22%2F%3E%3C%2FmxCell%3E%3CmxCell%20id%3D%2215%22%20value%3D%2225%22%20style%3D%22rounded%3D0%3BwhiteSpace%3Dwrap%3Bhtml%3D1%3B%22%20vertex%3D%221%22%20parent%3D%221%22%3E%3CmxGeometry%20x%3D%22740%22%20y%3D%221400%22%20width%3D%2240%22%20height%3D%2240%22%20as%3D%22geometry%22%2F%3E%3C%2FmxCell%3E%3C%2Froot%3E%3C%2FmxGraphModel%3E&lt;/span&gt;" style="rounded=0;whiteSpace=wrap;html=1;fillColor=#dae8fc;strokeColor=#6c8ebf;" vertex="1" parent="1">
          <mxGeometry x="580" y="1160" width="40" height="40" as="geometry" />
        </mxCell>
        <mxCell id="J9iAy3apQVE2GlNHFhud-120" value="40" style="rounded=0;whiteSpace=wrap;html=1;fillColor=#dae8fc;strokeColor=#6c8ebf;" vertex="1" parent="1">
          <mxGeometry x="620" y="1160" width="40" height="40" as="geometry" />
        </mxCell>
        <mxCell id="J9iAy3apQVE2GlNHFhud-121" value="50" style="rounded=0;whiteSpace=wrap;html=1;fillColor=#dae8fc;strokeColor=#6c8ebf;" vertex="1" parent="1">
          <mxGeometry x="660" y="1160" width="40" height="40" as="geometry" />
        </mxCell>
        <mxCell id="J9iAy3apQVE2GlNHFhud-122" value="10" style="rounded=0;whiteSpace=wrap;html=1;fillColor=#dae8fc;strokeColor=#6c8ebf;" vertex="1" parent="1">
          <mxGeometry x="660" y="1200" width="40" height="40" as="geometry" />
        </mxCell>
        <mxCell id="J9iAy3apQVE2GlNHFhud-123" value="9" style="rounded=0;whiteSpace=wrap;html=1;fillColor=#dae8fc;strokeColor=#6c8ebf;" vertex="1" parent="1">
          <mxGeometry x="620" y="1200" width="40" height="40" as="geometry" />
        </mxCell>
        <mxCell id="J9iAy3apQVE2GlNHFhud-124" value="8" style="rounded=0;whiteSpace=wrap;html=1;fillColor=#dae8fc;strokeColor=#6c8ebf;" vertex="1" parent="1">
          <mxGeometry x="580" y="1200" width="40" height="40" as="geometry" />
        </mxCell>
        <mxCell id="J9iAy3apQVE2GlNHFhud-125" value="20" style="rounded=0;whiteSpace=wrap;html=1;fillColor=#dae8fc;strokeColor=#6c8ebf;" vertex="1" parent="1">
          <mxGeometry x="540" y="1200" width="40" height="40" as="geometry" />
        </mxCell>
        <mxCell id="J9iAy3apQVE2GlNHFhud-126" value="10" style="rounded=0;whiteSpace=wrap;html=1;fillColor=#dae8fc;strokeColor=#6c8ebf;" vertex="1" parent="1">
          <mxGeometry x="500" y="1200" width="40" height="40" as="geometry" />
        </mxCell>
        <mxCell id="J9iAy3apQVE2GlNHFhud-127" value="15" style="rounded=0;whiteSpace=wrap;html=1;fillColor=#dae8fc;strokeColor=#6c8ebf;" vertex="1" parent="1">
          <mxGeometry x="660" y="1240" width="40" height="40" as="geometry" />
        </mxCell>
        <mxCell id="J9iAy3apQVE2GlNHFhud-128" value="14" style="rounded=0;whiteSpace=wrap;html=1;fillColor=#dae8fc;strokeColor=#6c8ebf;" vertex="1" parent="1">
          <mxGeometry x="620" y="1240" width="40" height="40" as="geometry" />
        </mxCell>
        <mxCell id="J9iAy3apQVE2GlNHFhud-129" value="13" style="rounded=0;whiteSpace=wrap;html=1;fillColor=#dae8fc;strokeColor=#6c8ebf;" vertex="1" parent="1">
          <mxGeometry x="580" y="1240" width="40" height="40" as="geometry" />
        </mxCell>
        <mxCell id="J9iAy3apQVE2GlNHFhud-130" value="20" style="rounded=0;whiteSpace=wrap;html=1;fillColor=#dae8fc;strokeColor=#6c8ebf;" vertex="1" parent="1">
          <mxGeometry x="540" y="1240" width="40" height="40" as="geometry" />
        </mxCell>
        <mxCell id="J9iAy3apQVE2GlNHFhud-131" value="10" style="rounded=0;whiteSpace=wrap;html=1;fillColor=#dae8fc;strokeColor=#6c8ebf;" vertex="1" parent="1">
          <mxGeometry x="500" y="1240" width="40" height="40" as="geometry" />
        </mxCell>
        <mxCell id="J9iAy3apQVE2GlNHFhud-132" value="20" style="rounded=0;whiteSpace=wrap;html=1;fillColor=#dae8fc;strokeColor=#6c8ebf;" vertex="1" parent="1">
          <mxGeometry x="660" y="1280" width="40" height="40" as="geometry" />
        </mxCell>
        <mxCell id="J9iAy3apQVE2GlNHFhud-133" value="19" style="rounded=0;whiteSpace=wrap;html=1;fillColor=#dae8fc;strokeColor=#6c8ebf;" vertex="1" parent="1">
          <mxGeometry x="620" y="1280" width="40" height="40" as="geometry" />
        </mxCell>
        <mxCell id="J9iAy3apQVE2GlNHFhud-134" value="18" style="rounded=0;whiteSpace=wrap;html=1;fillColor=#dae8fc;strokeColor=#6c8ebf;" vertex="1" parent="1">
          <mxGeometry x="580" y="1280" width="40" height="40" as="geometry" />
        </mxCell>
        <mxCell id="J9iAy3apQVE2GlNHFhud-135" value="20" style="rounded=0;whiteSpace=wrap;html=1;fillColor=#dae8fc;strokeColor=#6c8ebf;" vertex="1" parent="1">
          <mxGeometry x="540" y="1280" width="40" height="40" as="geometry" />
        </mxCell>
        <mxCell id="J9iAy3apQVE2GlNHFhud-136" value="10" style="rounded=0;whiteSpace=wrap;html=1;fillColor=#dae8fc;strokeColor=#6c8ebf;" vertex="1" parent="1">
          <mxGeometry x="500" y="1280" width="40" height="40" as="geometry" />
        </mxCell>
        <mxCell id="J9iAy3apQVE2GlNHFhud-137" value="25" style="rounded=0;whiteSpace=wrap;html=1;fillColor=#dae8fc;strokeColor=#6c8ebf;" vertex="1" parent="1">
          <mxGeometry x="660" y="1320" width="40" height="40" as="geometry" />
        </mxCell>
        <mxCell id="J9iAy3apQVE2GlNHFhud-138" value="24" style="rounded=0;whiteSpace=wrap;html=1;fillColor=#dae8fc;strokeColor=#6c8ebf;" vertex="1" parent="1">
          <mxGeometry x="620" y="1320" width="40" height="40" as="geometry" />
        </mxCell>
        <mxCell id="J9iAy3apQVE2GlNHFhud-139" value="23" style="rounded=0;whiteSpace=wrap;html=1;fillColor=#dae8fc;strokeColor=#6c8ebf;" vertex="1" parent="1">
          <mxGeometry x="580" y="1320" width="40" height="40" as="geometry" />
        </mxCell>
        <mxCell id="J9iAy3apQVE2GlNHFhud-140" value="20" style="rounded=0;whiteSpace=wrap;html=1;fillColor=#dae8fc;strokeColor=#6c8ebf;" vertex="1" parent="1">
          <mxGeometry x="540" y="1320" width="40" height="40" as="geometry" />
        </mxCell>
        <mxCell id="J9iAy3apQVE2GlNHFhud-141" value="10" style="rounded=0;whiteSpace=wrap;html=1;fillColor=#dae8fc;strokeColor=#6c8ebf;" vertex="1" parent="1">
          <mxGeometry x="500" y="1320" width="40" height="40" as="geometry" />
        </mxCell>
        <mxCell id="J9iAy3apQVE2GlNHFhud-142" value="60" style="rounded=0;whiteSpace=wrap;html=1;fillColor=#dae8fc;strokeColor=#6c8ebf;" vertex="1" parent="1">
          <mxGeometry x="700" y="1160" width="40" height="40" as="geometry" />
        </mxCell>
        <mxCell id="J9iAy3apQVE2GlNHFhud-143" value="10" style="rounded=0;whiteSpace=wrap;html=1;fillColor=#dae8fc;strokeColor=#6c8ebf;" vertex="1" parent="1">
          <mxGeometry x="700" y="1200" width="40" height="40" as="geometry" />
        </mxCell>
        <mxCell id="J9iAy3apQVE2GlNHFhud-144" value="15" style="rounded=0;whiteSpace=wrap;html=1;fillColor=#dae8fc;strokeColor=#6c8ebf;" vertex="1" parent="1">
          <mxGeometry x="700" y="1240" width="40" height="40" as="geometry" />
        </mxCell>
        <mxCell id="J9iAy3apQVE2GlNHFhud-145" value="20" style="rounded=0;whiteSpace=wrap;html=1;fillColor=#dae8fc;strokeColor=#6c8ebf;" vertex="1" parent="1">
          <mxGeometry x="700" y="1280" width="40" height="40" as="geometry" />
        </mxCell>
        <mxCell id="J9iAy3apQVE2GlNHFhud-146" value="25" style="rounded=0;whiteSpace=wrap;html=1;fillColor=#dae8fc;strokeColor=#6c8ebf;" vertex="1" parent="1">
          <mxGeometry x="700" y="1320" width="40" height="40" as="geometry" />
        </mxCell>
        <mxCell id="J9iAy3apQVE2GlNHFhud-147" value="70" style="rounded=0;whiteSpace=wrap;html=1;fillColor=#dae8fc;strokeColor=#6c8ebf;" vertex="1" parent="1">
          <mxGeometry x="740" y="1160" width="40" height="40" as="geometry" />
        </mxCell>
        <mxCell id="J9iAy3apQVE2GlNHFhud-148" value="10" style="rounded=0;whiteSpace=wrap;html=1;fillColor=#dae8fc;strokeColor=#6c8ebf;" vertex="1" parent="1">
          <mxGeometry x="740" y="1200" width="40" height="40" as="geometry" />
        </mxCell>
        <mxCell id="J9iAy3apQVE2GlNHFhud-149" value="15" style="rounded=0;whiteSpace=wrap;html=1;fillColor=#dae8fc;strokeColor=#6c8ebf;" vertex="1" parent="1">
          <mxGeometry x="740" y="1240" width="40" height="40" as="geometry" />
        </mxCell>
        <mxCell id="J9iAy3apQVE2GlNHFhud-150" value="20" style="rounded=0;whiteSpace=wrap;html=1;fillColor=#dae8fc;strokeColor=#6c8ebf;" vertex="1" parent="1">
          <mxGeometry x="740" y="1280" width="40" height="40" as="geometry" />
        </mxCell>
        <mxCell id="J9iAy3apQVE2GlNHFhud-151" value="25" style="rounded=0;whiteSpace=wrap;html=1;fillColor=#dae8fc;strokeColor=#6c8ebf;" vertex="1" parent="1">
          <mxGeometry x="740" y="1320" width="40" height="40" as="geometry" />
        </mxCell>
        <mxCell id="J9iAy3apQVE2GlNHFhud-152" value="25" style="rounded=0;whiteSpace=wrap;html=1;fillColor=#dae8fc;strokeColor=#6c8ebf;" vertex="1" parent="1">
          <mxGeometry x="660" y="1360" width="40" height="40" as="geometry" />
        </mxCell>
        <mxCell id="J9iAy3apQVE2GlNHFhud-153" value="24" style="rounded=0;whiteSpace=wrap;html=1;fillColor=#dae8fc;strokeColor=#6c8ebf;" vertex="1" parent="1">
          <mxGeometry x="620" y="1360" width="40" height="40" as="geometry" />
        </mxCell>
        <mxCell id="J9iAy3apQVE2GlNHFhud-154" value="23" style="rounded=0;whiteSpace=wrap;html=1;fillColor=#dae8fc;strokeColor=#6c8ebf;" vertex="1" parent="1">
          <mxGeometry x="580" y="1360" width="40" height="40" as="geometry" />
        </mxCell>
        <mxCell id="J9iAy3apQVE2GlNHFhud-155" value="20" style="rounded=0;whiteSpace=wrap;html=1;fillColor=#dae8fc;strokeColor=#6c8ebf;" vertex="1" parent="1">
          <mxGeometry x="540" y="1360" width="40" height="40" as="geometry" />
        </mxCell>
        <mxCell id="J9iAy3apQVE2GlNHFhud-156" value="10" style="rounded=0;whiteSpace=wrap;html=1;fillColor=#dae8fc;strokeColor=#6c8ebf;" vertex="1" parent="1">
          <mxGeometry x="500" y="1360" width="40" height="40" as="geometry" />
        </mxCell>
        <mxCell id="J9iAy3apQVE2GlNHFhud-157" value="25" style="rounded=0;whiteSpace=wrap;html=1;fillColor=#dae8fc;strokeColor=#6c8ebf;" vertex="1" parent="1">
          <mxGeometry x="700" y="1360" width="40" height="40" as="geometry" />
        </mxCell>
        <mxCell id="J9iAy3apQVE2GlNHFhud-158" value="25" style="rounded=0;whiteSpace=wrap;html=1;fillColor=#dae8fc;strokeColor=#6c8ebf;" vertex="1" parent="1">
          <mxGeometry x="740" y="1360" width="40" height="40" as="geometry" />
        </mxCell>
        <mxCell id="J9iAy3apQVE2GlNHFhud-159" value="25" style="rounded=0;whiteSpace=wrap;html=1;fillColor=#dae8fc;strokeColor=#6c8ebf;" vertex="1" parent="1">
          <mxGeometry x="660" y="1400" width="40" height="40" as="geometry" />
        </mxCell>
        <mxCell id="J9iAy3apQVE2GlNHFhud-160" value="24" style="rounded=0;whiteSpace=wrap;html=1;fillColor=#dae8fc;strokeColor=#6c8ebf;" vertex="1" parent="1">
          <mxGeometry x="620" y="1400" width="40" height="40" as="geometry" />
        </mxCell>
        <mxCell id="J9iAy3apQVE2GlNHFhud-161" value="23" style="rounded=0;whiteSpace=wrap;html=1;fillColor=#dae8fc;strokeColor=#6c8ebf;" vertex="1" parent="1">
          <mxGeometry x="580" y="1400" width="40" height="40" as="geometry" />
        </mxCell>
        <mxCell id="J9iAy3apQVE2GlNHFhud-162" value="20" style="rounded=0;whiteSpace=wrap;html=1;fillColor=#dae8fc;strokeColor=#6c8ebf;" vertex="1" parent="1">
          <mxGeometry x="540" y="1400" width="40" height="40" as="geometry" />
        </mxCell>
        <mxCell id="J9iAy3apQVE2GlNHFhud-163" value="10" style="rounded=0;whiteSpace=wrap;html=1;fillColor=#dae8fc;strokeColor=#6c8ebf;" vertex="1" parent="1">
          <mxGeometry x="500" y="1400" width="40" height="40" as="geometry" />
        </mxCell>
        <mxCell id="J9iAy3apQVE2GlNHFhud-164" value="25" style="rounded=0;whiteSpace=wrap;html=1;fillColor=#dae8fc;strokeColor=#6c8ebf;" vertex="1" parent="1">
          <mxGeometry x="700" y="1400" width="40" height="40" as="geometry" />
        </mxCell>
        <mxCell id="J9iAy3apQVE2GlNHFhud-165" value="25" style="rounded=0;whiteSpace=wrap;html=1;fillColor=#dae8fc;strokeColor=#6c8ebf;" vertex="1" parent="1">
          <mxGeometry x="740" y="1400" width="40" height="40" as="geometry" />
        </mxCell>
        <mxCell id="J9iAy3apQVE2GlNHFhud-166" value="25" style="rounded=0;whiteSpace=wrap;html=1;fillColor=#dae8fc;strokeColor=#6c8ebf;" vertex="1" parent="1">
          <mxGeometry x="660" y="1440" width="40" height="40" as="geometry" />
        </mxCell>
        <mxCell id="J9iAy3apQVE2GlNHFhud-167" value="24" style="rounded=0;whiteSpace=wrap;html=1;fillColor=#dae8fc;strokeColor=#6c8ebf;" vertex="1" parent="1">
          <mxGeometry x="620" y="1440" width="40" height="40" as="geometry" />
        </mxCell>
        <mxCell id="J9iAy3apQVE2GlNHFhud-168" value="23" style="rounded=0;whiteSpace=wrap;html=1;fillColor=#dae8fc;strokeColor=#6c8ebf;" vertex="1" parent="1">
          <mxGeometry x="580" y="1440" width="40" height="40" as="geometry" />
        </mxCell>
        <mxCell id="J9iAy3apQVE2GlNHFhud-169" value="20" style="rounded=0;whiteSpace=wrap;html=1;fillColor=#dae8fc;strokeColor=#6c8ebf;" vertex="1" parent="1">
          <mxGeometry x="540" y="1440" width="40" height="40" as="geometry" />
        </mxCell>
        <mxCell id="J9iAy3apQVE2GlNHFhud-170" value="10" style="rounded=0;whiteSpace=wrap;html=1;fillColor=#dae8fc;strokeColor=#6c8ebf;" vertex="1" parent="1">
          <mxGeometry x="500" y="1440" width="40" height="40" as="geometry" />
        </mxCell>
        <mxCell id="J9iAy3apQVE2GlNHFhud-171" value="25" style="rounded=0;whiteSpace=wrap;html=1;fillColor=#dae8fc;strokeColor=#6c8ebf;" vertex="1" parent="1">
          <mxGeometry x="700" y="1440" width="40" height="40" as="geometry" />
        </mxCell>
        <mxCell id="J9iAy3apQVE2GlNHFhud-172" value="25" style="rounded=0;whiteSpace=wrap;html=1;fillColor=#dae8fc;strokeColor=#6c8ebf;" vertex="1" parent="1">
          <mxGeometry x="740" y="1440" width="40" height="40" as="geometry" />
        </mxCell>
        <mxCell id="J9iAy3apQVE2GlNHFhud-173" value="25" style="rounded=0;whiteSpace=wrap;html=1;fillColor=#dae8fc;strokeColor=#6c8ebf;" vertex="1" parent="1">
          <mxGeometry x="660" y="1480" width="40" height="40" as="geometry" />
        </mxCell>
        <mxCell id="J9iAy3apQVE2GlNHFhud-174" value="24" style="rounded=0;whiteSpace=wrap;html=1;fillColor=#dae8fc;strokeColor=#6c8ebf;" vertex="1" parent="1">
          <mxGeometry x="620" y="1480" width="40" height="40" as="geometry" />
        </mxCell>
        <mxCell id="J9iAy3apQVE2GlNHFhud-175" value="23" style="rounded=0;whiteSpace=wrap;html=1;fillColor=#dae8fc;strokeColor=#6c8ebf;" vertex="1" parent="1">
          <mxGeometry x="580" y="1480" width="40" height="40" as="geometry" />
        </mxCell>
        <mxCell id="J9iAy3apQVE2GlNHFhud-176" value="20" style="rounded=0;whiteSpace=wrap;html=1;fillColor=#dae8fc;strokeColor=#6c8ebf;" vertex="1" parent="1">
          <mxGeometry x="540" y="1480" width="40" height="40" as="geometry" />
        </mxCell>
        <mxCell id="J9iAy3apQVE2GlNHFhud-177" value="10" style="rounded=0;whiteSpace=wrap;html=1;fillColor=#dae8fc;strokeColor=#6c8ebf;" vertex="1" parent="1">
          <mxGeometry x="500" y="1480" width="40" height="40" as="geometry" />
        </mxCell>
        <mxCell id="J9iAy3apQVE2GlNHFhud-178" value="25" style="rounded=0;whiteSpace=wrap;html=1;fillColor=#dae8fc;strokeColor=#6c8ebf;" vertex="1" parent="1">
          <mxGeometry x="700" y="1480" width="40" height="40" as="geometry" />
        </mxCell>
        <mxCell id="J9iAy3apQVE2GlNHFhud-179" value="25" style="rounded=0;whiteSpace=wrap;html=1;fillColor=#dae8fc;strokeColor=#6c8ebf;" vertex="1" parent="1">
          <mxGeometry x="740" y="1480" width="40" height="40" as="geometry" />
        </mxCell>
        <mxCell id="J9iAy3apQVE2GlNHFhud-194" value="30&lt;span style=&quot;color: rgba(0, 0, 0, 0); font-family: monospace; font-size: 0px; text-align: start; text-wrap-mode: nowrap;&quot;&gt;%3CmxGraphModel%3E%3Croot%3E%3CmxCell%20id%3D%220%22%2F%3E%3CmxCell%20id%3D%221%22%20parent%3D%220%22%2F%3E%3CmxCell%20id%3D%222%22%20value%3D%2225%22%20style%3D%22rounded%3D0%3BwhiteSpace%3Dwrap%3Bhtml%3D1%3B%22%20vertex%3D%221%22%20parent%3D%221%22%3E%3CmxGeometry%20x%3D%22660%22%20y%3D%221360%22%20width%3D%2240%22%20height%3D%2240%22%20as%3D%22geometry%22%2F%3E%3C%2FmxCell%3E%3CmxCell%20id%3D%223%22%20value%3D%2224%22%20style%3D%22rounded%3D0%3BwhiteSpace%3Dwrap%3Bhtml%3D1%3B%22%20vertex%3D%221%22%20parent%3D%221%22%3E%3CmxGeometry%20x%3D%22620%22%20y%3D%221360%22%20width%3D%2240%22%20height%3D%2240%22%20as%3D%22geometry%22%2F%3E%3C%2FmxCell%3E%3CmxCell%20id%3D%224%22%20value%3D%2223%22%20style%3D%22rounded%3D0%3BwhiteSpace%3Dwrap%3Bhtml%3D1%3B%22%20vertex%3D%221%22%20parent%3D%221%22%3E%3CmxGeometry%20x%3D%22580%22%20y%3D%221360%22%20width%3D%2240%22%20height%3D%2240%22%20as%3D%22geometry%22%2F%3E%3C%2FmxCell%3E%3CmxCell%20id%3D%225%22%20value%3D%2222%22%20style%3D%22rounded%3D0%3BwhiteSpace%3Dwrap%3Bhtml%3D1%3B%22%20vertex%3D%221%22%20parent%3D%221%22%3E%3CmxGeometry%20x%3D%22540%22%20y%3D%221360%22%20width%3D%2240%22%20height%3D%2240%22%20as%3D%22geometry%22%2F%3E%3C%2FmxCell%3E%3CmxCell%20id%3D%226%22%20value%3D%2210%22%20style%3D%22rounded%3D0%3BwhiteSpace%3Dwrap%3Bhtml%3D1%3B%22%20vertex%3D%221%22%20parent%3D%221%22%3E%3CmxGeometry%20x%3D%22500%22%20y%3D%221360%22%20width%3D%2240%22%20height%3D%2240%22%20as%3D%22geometry%22%2F%3E%3C%2FmxCell%3E%3CmxCell%20id%3D%227%22%20value%3D%2225%22%20style%3D%22rounded%3D0%3BwhiteSpace%3Dwrap%3Bhtml%3D1%3B%22%20vertex%3D%221%22%20parent%3D%221%22%3E%3CmxGeometry%20x%3D%22700%22%20y%3D%221360%22%20width%3D%2240%22%20height%3D%2240%22%20as%3D%22geometry%22%2F%3E%3C%2FmxCell%3E%3CmxCell%20id%3D%228%22%20value%3D%2225%22%20style%3D%22rounded%3D0%3BwhiteSpace%3Dwrap%3Bhtml%3D1%3B%22%20vertex%3D%221%22%20parent%3D%221%22%3E%3CmxGeometry%20x%3D%22740%22%20y%3D%221360%22%20width%3D%2240%22%20height%3D%2240%22%20as%3D%22geometry%22%2F%3E%3C%2FmxCell%3E%3CmxCell%20id%3D%229%22%20value%3D%2225%22%20style%3D%22rounded%3D0%3BwhiteSpace%3Dwrap%3Bhtml%3D1%3B%22%20vertex%3D%221%22%20parent%3D%221%22%3E%3CmxGeometry%20x%3D%22660%22%20y%3D%221400%22%20width%3D%2240%22%20height%3D%2240%22%20as%3D%22geometry%22%2F%3E%3C%2FmxCell%3E%3CmxCell%20id%3D%2210%22%20value%3D%2224%22%20style%3D%22rounded%3D0%3BwhiteSpace%3Dwrap%3Bhtml%3D1%3B%22%20vertex%3D%221%22%20parent%3D%221%22%3E%3CmxGeometry%20x%3D%22620%22%20y%3D%221400%22%20width%3D%2240%22%20height%3D%2240%22%20as%3D%22geometry%22%2F%3E%3C%2FmxCell%3E%3CmxCell%20id%3D%2211%22%20value%3D%2223%22%20style%3D%22rounded%3D0%3BwhiteSpace%3Dwrap%3Bhtml%3D1%3B%22%20vertex%3D%221%22%20parent%3D%221%22%3E%3CmxGeometry%20x%3D%22580%22%20y%3D%221400%22%20width%3D%2240%22%20height%3D%2240%22%20as%3D%22geometry%22%2F%3E%3C%2FmxCell%3E%3CmxCell%20id%3D%2212%22%20value%3D%2222%22%20style%3D%22rounded%3D0%3BwhiteSpace%3Dwrap%3Bhtml%3D1%3B%22%20vertex%3D%221%22%20parent%3D%221%22%3E%3CmxGeometry%20x%3D%22540%22%20y%3D%221400%22%20width%3D%2240%22%20height%3D%2240%22%20as%3D%22geometry%22%2F%3E%3C%2FmxCell%3E%3CmxCell%20id%3D%2213%22%20value%3D%2210%22%20style%3D%22rounded%3D0%3BwhiteSpace%3Dwrap%3Bhtml%3D1%3B%22%20vertex%3D%221%22%20parent%3D%221%22%3E%3CmxGeometry%20x%3D%22500%22%20y%3D%221400%22%20width%3D%2240%22%20height%3D%2240%22%20as%3D%22geometry%22%2F%3E%3C%2FmxCell%3E%3CmxCell%20id%3D%2214%22%20value%3D%2225%22%20style%3D%22rounded%3D0%3BwhiteSpace%3Dwrap%3Bhtml%3D1%3B%22%20vertex%3D%221%22%20parent%3D%221%22%3E%3CmxGeometry%20x%3D%22700%22%20y%3D%221400%22%20width%3D%2240%22%20height%3D%2240%22%20as%3D%22geometry%22%2F%3E%3C%2FmxCell%3E%3CmxCell%20id%3D%2215%22%20value%3D%2225%22%20style%3D%22rounded%3D0%3BwhiteSpace%3Dwrap%3Bhtml%3D1%3B%22%20vertex%3D%221%22%20parent%3D%221%22%3E%3CmxGeometry%20x%3D%22740%22%20y%3D%221400%22%20width%3D%2240%22%20height%3D%2240%22%20as%3D%22geometry%22%2F%3E%3C%2FmxCell%3E%3C%2Froot%3E%3C%2FmxGraphModel%3E&lt;/span&gt;" style="rounded=0;whiteSpace=wrap;html=1;fillColor=#dae8fc;strokeColor=#6c8ebf;" vertex="1" parent="1">
          <mxGeometry x="580" y="1200" width="40" height="40" as="geometry" />
        </mxCell>
        <mxCell id="J9iAy3apQVE2GlNHFhud-195" value="30&lt;span style=&quot;color: rgba(0, 0, 0, 0); font-family: monospace; font-size: 0px; text-align: start; text-wrap-mode: nowrap;&quot;&gt;%3CmxGraphModel%3E%3Croot%3E%3CmxCell%20id%3D%220%22%2F%3E%3CmxCell%20id%3D%221%22%20parent%3D%220%22%2F%3E%3CmxCell%20id%3D%222%22%20value%3D%2225%22%20style%3D%22rounded%3D0%3BwhiteSpace%3Dwrap%3Bhtml%3D1%3B%22%20vertex%3D%221%22%20parent%3D%221%22%3E%3CmxGeometry%20x%3D%22660%22%20y%3D%221360%22%20width%3D%2240%22%20height%3D%2240%22%20as%3D%22geometry%22%2F%3E%3C%2FmxCell%3E%3CmxCell%20id%3D%223%22%20value%3D%2224%22%20style%3D%22rounded%3D0%3BwhiteSpace%3Dwrap%3Bhtml%3D1%3B%22%20vertex%3D%221%22%20parent%3D%221%22%3E%3CmxGeometry%20x%3D%22620%22%20y%3D%221360%22%20width%3D%2240%22%20height%3D%2240%22%20as%3D%22geometry%22%2F%3E%3C%2FmxCell%3E%3CmxCell%20id%3D%224%22%20value%3D%2223%22%20style%3D%22rounded%3D0%3BwhiteSpace%3Dwrap%3Bhtml%3D1%3B%22%20vertex%3D%221%22%20parent%3D%221%22%3E%3CmxGeometry%20x%3D%22580%22%20y%3D%221360%22%20width%3D%2240%22%20height%3D%2240%22%20as%3D%22geometry%22%2F%3E%3C%2FmxCell%3E%3CmxCell%20id%3D%225%22%20value%3D%2222%22%20style%3D%22rounded%3D0%3BwhiteSpace%3Dwrap%3Bhtml%3D1%3B%22%20vertex%3D%221%22%20parent%3D%221%22%3E%3CmxGeometry%20x%3D%22540%22%20y%3D%221360%22%20width%3D%2240%22%20height%3D%2240%22%20as%3D%22geometry%22%2F%3E%3C%2FmxCell%3E%3CmxCell%20id%3D%226%22%20value%3D%2210%22%20style%3D%22rounded%3D0%3BwhiteSpace%3Dwrap%3Bhtml%3D1%3B%22%20vertex%3D%221%22%20parent%3D%221%22%3E%3CmxGeometry%20x%3D%22500%22%20y%3D%221360%22%20width%3D%2240%22%20height%3D%2240%22%20as%3D%22geometry%22%2F%3E%3C%2FmxCell%3E%3CmxCell%20id%3D%227%22%20value%3D%2225%22%20style%3D%22rounded%3D0%3BwhiteSpace%3Dwrap%3Bhtml%3D1%3B%22%20vertex%3D%221%22%20parent%3D%221%22%3E%3CmxGeometry%20x%3D%22700%22%20y%3D%221360%22%20width%3D%2240%22%20height%3D%2240%22%20as%3D%22geometry%22%2F%3E%3C%2FmxCell%3E%3CmxCell%20id%3D%228%22%20value%3D%2225%22%20style%3D%22rounded%3D0%3BwhiteSpace%3Dwrap%3Bhtml%3D1%3B%22%20vertex%3D%221%22%20parent%3D%221%22%3E%3CmxGeometry%20x%3D%22740%22%20y%3D%221360%22%20width%3D%2240%22%20height%3D%2240%22%20as%3D%22geometry%22%2F%3E%3C%2FmxCell%3E%3CmxCell%20id%3D%229%22%20value%3D%2225%22%20style%3D%22rounded%3D0%3BwhiteSpace%3Dwrap%3Bhtml%3D1%3B%22%20vertex%3D%221%22%20parent%3D%221%22%3E%3CmxGeometry%20x%3D%22660%22%20y%3D%221400%22%20width%3D%2240%22%20height%3D%2240%22%20as%3D%22geometry%22%2F%3E%3C%2FmxCell%3E%3CmxCell%20id%3D%2210%22%20value%3D%2224%22%20style%3D%22rounded%3D0%3BwhiteSpace%3Dwrap%3Bhtml%3D1%3B%22%20vertex%3D%221%22%20parent%3D%221%22%3E%3CmxGeometry%20x%3D%22620%22%20y%3D%221400%22%20width%3D%2240%22%20height%3D%2240%22%20as%3D%22geometry%22%2F%3E%3C%2FmxCell%3E%3CmxCell%20id%3D%2211%22%20value%3D%2223%22%20style%3D%22rounded%3D0%3BwhiteSpace%3Dwrap%3Bhtml%3D1%3B%22%20vertex%3D%221%22%20parent%3D%221%22%3E%3CmxGeometry%20x%3D%22580%22%20y%3D%221400%22%20width%3D%2240%22%20height%3D%2240%22%20as%3D%22geometry%22%2F%3E%3C%2FmxCell%3E%3CmxCell%20id%3D%2212%22%20value%3D%2222%22%20style%3D%22rounded%3D0%3BwhiteSpace%3Dwrap%3Bhtml%3D1%3B%22%20vertex%3D%221%22%20parent%3D%221%22%3E%3CmxGeometry%20x%3D%22540%22%20y%3D%221400%22%20width%3D%2240%22%20height%3D%2240%22%20as%3D%22geometry%22%2F%3E%3C%2FmxCell%3E%3CmxCell%20id%3D%2213%22%20value%3D%2210%22%20style%3D%22rounded%3D0%3BwhiteSpace%3Dwrap%3Bhtml%3D1%3B%22%20vertex%3D%221%22%20parent%3D%221%22%3E%3CmxGeometry%20x%3D%22500%22%20y%3D%221400%22%20width%3D%2240%22%20height%3D%2240%22%20as%3D%22geometry%22%2F%3E%3C%2FmxCell%3E%3CmxCell%20id%3D%2214%22%20value%3D%2225%22%20style%3D%22rounded%3D0%3BwhiteSpace%3Dwrap%3Bhtml%3D1%3B%22%20vertex%3D%221%22%20parent%3D%221%22%3E%3CmxGeometry%20x%3D%22700%22%20y%3D%221400%22%20width%3D%2240%22%20height%3D%2240%22%20as%3D%22geometry%22%2F%3E%3C%2FmxCell%3E%3CmxCell%20id%3D%2215%22%20value%3D%2225%22%20style%3D%22rounded%3D0%3BwhiteSpace%3Dwrap%3Bhtml%3D1%3B%22%20vertex%3D%221%22%20parent%3D%221%22%3E%3CmxGeometry%20x%3D%22740%22%20y%3D%221400%22%20width%3D%2240%22%20height%3D%2240%22%20as%3D%22geometry%22%2F%3E%3C%2FmxCell%3E%3C%2Froot%3E%3C%2FmxGraphModel%3E&lt;/span&gt;" style="rounded=0;whiteSpace=wrap;html=1;fillColor=#dae8fc;strokeColor=#6c8ebf;" vertex="1" parent="1">
          <mxGeometry x="580" y="1240" width="40" height="40" as="geometry" />
        </mxCell>
        <mxCell id="J9iAy3apQVE2GlNHFhud-196" value="30&lt;span style=&quot;color: rgba(0, 0, 0, 0); font-family: monospace; font-size: 0px; text-align: start; text-wrap-mode: nowrap;&quot;&gt;%3CmxGraphModel%3E%3Croot%3E%3CmxCell%20id%3D%220%22%2F%3E%3CmxCell%20id%3D%221%22%20parent%3D%220%22%2F%3E%3CmxCell%20id%3D%222%22%20value%3D%2225%22%20style%3D%22rounded%3D0%3BwhiteSpace%3Dwrap%3Bhtml%3D1%3B%22%20vertex%3D%221%22%20parent%3D%221%22%3E%3CmxGeometry%20x%3D%22660%22%20y%3D%221360%22%20width%3D%2240%22%20height%3D%2240%22%20as%3D%22geometry%22%2F%3E%3C%2FmxCell%3E%3CmxCell%20id%3D%223%22%20value%3D%2224%22%20style%3D%22rounded%3D0%3BwhiteSpace%3Dwrap%3Bhtml%3D1%3B%22%20vertex%3D%221%22%20parent%3D%221%22%3E%3CmxGeometry%20x%3D%22620%22%20y%3D%221360%22%20width%3D%2240%22%20height%3D%2240%22%20as%3D%22geometry%22%2F%3E%3C%2FmxCell%3E%3CmxCell%20id%3D%224%22%20value%3D%2223%22%20style%3D%22rounded%3D0%3BwhiteSpace%3Dwrap%3Bhtml%3D1%3B%22%20vertex%3D%221%22%20parent%3D%221%22%3E%3CmxGeometry%20x%3D%22580%22%20y%3D%221360%22%20width%3D%2240%22%20height%3D%2240%22%20as%3D%22geometry%22%2F%3E%3C%2FmxCell%3E%3CmxCell%20id%3D%225%22%20value%3D%2222%22%20style%3D%22rounded%3D0%3BwhiteSpace%3Dwrap%3Bhtml%3D1%3B%22%20vertex%3D%221%22%20parent%3D%221%22%3E%3CmxGeometry%20x%3D%22540%22%20y%3D%221360%22%20width%3D%2240%22%20height%3D%2240%22%20as%3D%22geometry%22%2F%3E%3C%2FmxCell%3E%3CmxCell%20id%3D%226%22%20value%3D%2210%22%20style%3D%22rounded%3D0%3BwhiteSpace%3Dwrap%3Bhtml%3D1%3B%22%20vertex%3D%221%22%20parent%3D%221%22%3E%3CmxGeometry%20x%3D%22500%22%20y%3D%221360%22%20width%3D%2240%22%20height%3D%2240%22%20as%3D%22geometry%22%2F%3E%3C%2FmxCell%3E%3CmxCell%20id%3D%227%22%20value%3D%2225%22%20style%3D%22rounded%3D0%3BwhiteSpace%3Dwrap%3Bhtml%3D1%3B%22%20vertex%3D%221%22%20parent%3D%221%22%3E%3CmxGeometry%20x%3D%22700%22%20y%3D%221360%22%20width%3D%2240%22%20height%3D%2240%22%20as%3D%22geometry%22%2F%3E%3C%2FmxCell%3E%3CmxCell%20id%3D%228%22%20value%3D%2225%22%20style%3D%22rounded%3D0%3BwhiteSpace%3Dwrap%3Bhtml%3D1%3B%22%20vertex%3D%221%22%20parent%3D%221%22%3E%3CmxGeometry%20x%3D%22740%22%20y%3D%221360%22%20width%3D%2240%22%20height%3D%2240%22%20as%3D%22geometry%22%2F%3E%3C%2FmxCell%3E%3CmxCell%20id%3D%229%22%20value%3D%2225%22%20style%3D%22rounded%3D0%3BwhiteSpace%3Dwrap%3Bhtml%3D1%3B%22%20vertex%3D%221%22%20parent%3D%221%22%3E%3CmxGeometry%20x%3D%22660%22%20y%3D%221400%22%20width%3D%2240%22%20height%3D%2240%22%20as%3D%22geometry%22%2F%3E%3C%2FmxCell%3E%3CmxCell%20id%3D%2210%22%20value%3D%2224%22%20style%3D%22rounded%3D0%3BwhiteSpace%3Dwrap%3Bhtml%3D1%3B%22%20vertex%3D%221%22%20parent%3D%221%22%3E%3CmxGeometry%20x%3D%22620%22%20y%3D%221400%22%20width%3D%2240%22%20height%3D%2240%22%20as%3D%22geometry%22%2F%3E%3C%2FmxCell%3E%3CmxCell%20id%3D%2211%22%20value%3D%2223%22%20style%3D%22rounded%3D0%3BwhiteSpace%3Dwrap%3Bhtml%3D1%3B%22%20vertex%3D%221%22%20parent%3D%221%22%3E%3CmxGeometry%20x%3D%22580%22%20y%3D%221400%22%20width%3D%2240%22%20height%3D%2240%22%20as%3D%22geometry%22%2F%3E%3C%2FmxCell%3E%3CmxCell%20id%3D%2212%22%20value%3D%2222%22%20style%3D%22rounded%3D0%3BwhiteSpace%3Dwrap%3Bhtml%3D1%3B%22%20vertex%3D%221%22%20parent%3D%221%22%3E%3CmxGeometry%20x%3D%22540%22%20y%3D%221400%22%20width%3D%2240%22%20height%3D%2240%22%20as%3D%22geometry%22%2F%3E%3C%2FmxCell%3E%3CmxCell%20id%3D%2213%22%20value%3D%2210%22%20style%3D%22rounded%3D0%3BwhiteSpace%3Dwrap%3Bhtml%3D1%3B%22%20vertex%3D%221%22%20parent%3D%221%22%3E%3CmxGeometry%20x%3D%22500%22%20y%3D%221400%22%20width%3D%2240%22%20height%3D%2240%22%20as%3D%22geometry%22%2F%3E%3C%2FmxCell%3E%3CmxCell%20id%3D%2214%22%20value%3D%2225%22%20style%3D%22rounded%3D0%3BwhiteSpace%3Dwrap%3Bhtml%3D1%3B%22%20vertex%3D%221%22%20parent%3D%221%22%3E%3CmxGeometry%20x%3D%22700%22%20y%3D%221400%22%20width%3D%2240%22%20height%3D%2240%22%20as%3D%22geometry%22%2F%3E%3C%2FmxCell%3E%3CmxCell%20id%3D%2215%22%20value%3D%2225%22%20style%3D%22rounded%3D0%3BwhiteSpace%3Dwrap%3Bhtml%3D1%3B%22%20vertex%3D%221%22%20parent%3D%221%22%3E%3CmxGeometry%20x%3D%22740%22%20y%3D%221400%22%20width%3D%2240%22%20height%3D%2240%22%20as%3D%22geometry%22%2F%3E%3C%2FmxCell%3E%3C%2Froot%3E%3C%2FmxGraphModel%3E&lt;/span&gt;" style="rounded=0;whiteSpace=wrap;html=1;fillColor=#dae8fc;strokeColor=#6c8ebf;" vertex="1" parent="1">
          <mxGeometry x="580" y="1280" width="40" height="40" as="geometry" />
        </mxCell>
        <mxCell id="J9iAy3apQVE2GlNHFhud-197" value="30&lt;span style=&quot;color: rgba(0, 0, 0, 0); font-family: monospace; font-size: 0px; text-align: start; text-wrap-mode: nowrap;&quot;&gt;%3CmxGraphModel%3E%3Croot%3E%3CmxCell%20id%3D%220%22%2F%3E%3CmxCell%20id%3D%221%22%20parent%3D%220%22%2F%3E%3CmxCell%20id%3D%222%22%20value%3D%2225%22%20style%3D%22rounded%3D0%3BwhiteSpace%3Dwrap%3Bhtml%3D1%3B%22%20vertex%3D%221%22%20parent%3D%221%22%3E%3CmxGeometry%20x%3D%22660%22%20y%3D%221360%22%20width%3D%2240%22%20height%3D%2240%22%20as%3D%22geometry%22%2F%3E%3C%2FmxCell%3E%3CmxCell%20id%3D%223%22%20value%3D%2224%22%20style%3D%22rounded%3D0%3BwhiteSpace%3Dwrap%3Bhtml%3D1%3B%22%20vertex%3D%221%22%20parent%3D%221%22%3E%3CmxGeometry%20x%3D%22620%22%20y%3D%221360%22%20width%3D%2240%22%20height%3D%2240%22%20as%3D%22geometry%22%2F%3E%3C%2FmxCell%3E%3CmxCell%20id%3D%224%22%20value%3D%2223%22%20style%3D%22rounded%3D0%3BwhiteSpace%3Dwrap%3Bhtml%3D1%3B%22%20vertex%3D%221%22%20parent%3D%221%22%3E%3CmxGeometry%20x%3D%22580%22%20y%3D%221360%22%20width%3D%2240%22%20height%3D%2240%22%20as%3D%22geometry%22%2F%3E%3C%2FmxCell%3E%3CmxCell%20id%3D%225%22%20value%3D%2222%22%20style%3D%22rounded%3D0%3BwhiteSpace%3Dwrap%3Bhtml%3D1%3B%22%20vertex%3D%221%22%20parent%3D%221%22%3E%3CmxGeometry%20x%3D%22540%22%20y%3D%221360%22%20width%3D%2240%22%20height%3D%2240%22%20as%3D%22geometry%22%2F%3E%3C%2FmxCell%3E%3CmxCell%20id%3D%226%22%20value%3D%2210%22%20style%3D%22rounded%3D0%3BwhiteSpace%3Dwrap%3Bhtml%3D1%3B%22%20vertex%3D%221%22%20parent%3D%221%22%3E%3CmxGeometry%20x%3D%22500%22%20y%3D%221360%22%20width%3D%2240%22%20height%3D%2240%22%20as%3D%22geometry%22%2F%3E%3C%2FmxCell%3E%3CmxCell%20id%3D%227%22%20value%3D%2225%22%20style%3D%22rounded%3D0%3BwhiteSpace%3Dwrap%3Bhtml%3D1%3B%22%20vertex%3D%221%22%20parent%3D%221%22%3E%3CmxGeometry%20x%3D%22700%22%20y%3D%221360%22%20width%3D%2240%22%20height%3D%2240%22%20as%3D%22geometry%22%2F%3E%3C%2FmxCell%3E%3CmxCell%20id%3D%228%22%20value%3D%2225%22%20style%3D%22rounded%3D0%3BwhiteSpace%3Dwrap%3Bhtml%3D1%3B%22%20vertex%3D%221%22%20parent%3D%221%22%3E%3CmxGeometry%20x%3D%22740%22%20y%3D%221360%22%20width%3D%2240%22%20height%3D%2240%22%20as%3D%22geometry%22%2F%3E%3C%2FmxCell%3E%3CmxCell%20id%3D%229%22%20value%3D%2225%22%20style%3D%22rounded%3D0%3BwhiteSpace%3Dwrap%3Bhtml%3D1%3B%22%20vertex%3D%221%22%20parent%3D%221%22%3E%3CmxGeometry%20x%3D%22660%22%20y%3D%221400%22%20width%3D%2240%22%20height%3D%2240%22%20as%3D%22geometry%22%2F%3E%3C%2FmxCell%3E%3CmxCell%20id%3D%2210%22%20value%3D%2224%22%20style%3D%22rounded%3D0%3BwhiteSpace%3Dwrap%3Bhtml%3D1%3B%22%20vertex%3D%221%22%20parent%3D%221%22%3E%3CmxGeometry%20x%3D%22620%22%20y%3D%221400%22%20width%3D%2240%22%20height%3D%2240%22%20as%3D%22geometry%22%2F%3E%3C%2FmxCell%3E%3CmxCell%20id%3D%2211%22%20value%3D%2223%22%20style%3D%22rounded%3D0%3BwhiteSpace%3Dwrap%3Bhtml%3D1%3B%22%20vertex%3D%221%22%20parent%3D%221%22%3E%3CmxGeometry%20x%3D%22580%22%20y%3D%221400%22%20width%3D%2240%22%20height%3D%2240%22%20as%3D%22geometry%22%2F%3E%3C%2FmxCell%3E%3CmxCell%20id%3D%2212%22%20value%3D%2222%22%20style%3D%22rounded%3D0%3BwhiteSpace%3Dwrap%3Bhtml%3D1%3B%22%20vertex%3D%221%22%20parent%3D%221%22%3E%3CmxGeometry%20x%3D%22540%22%20y%3D%221400%22%20width%3D%2240%22%20height%3D%2240%22%20as%3D%22geometry%22%2F%3E%3C%2FmxCell%3E%3CmxCell%20id%3D%2213%22%20value%3D%2210%22%20style%3D%22rounded%3D0%3BwhiteSpace%3Dwrap%3Bhtml%3D1%3B%22%20vertex%3D%221%22%20parent%3D%221%22%3E%3CmxGeometry%20x%3D%22500%22%20y%3D%221400%22%20width%3D%2240%22%20height%3D%2240%22%20as%3D%22geometry%22%2F%3E%3C%2FmxCell%3E%3CmxCell%20id%3D%2214%22%20value%3D%2225%22%20style%3D%22rounded%3D0%3BwhiteSpace%3Dwrap%3Bhtml%3D1%3B%22%20vertex%3D%221%22%20parent%3D%221%22%3E%3CmxGeometry%20x%3D%22700%22%20y%3D%221400%22%20width%3D%2240%22%20height%3D%2240%22%20as%3D%22geometry%22%2F%3E%3C%2FmxCell%3E%3CmxCell%20id%3D%2215%22%20value%3D%2225%22%20style%3D%22rounded%3D0%3BwhiteSpace%3Dwrap%3Bhtml%3D1%3B%22%20vertex%3D%221%22%20parent%3D%221%22%3E%3CmxGeometry%20x%3D%22740%22%20y%3D%221400%22%20width%3D%2240%22%20height%3D%2240%22%20as%3D%22geometry%22%2F%3E%3C%2FmxCell%3E%3C%2Froot%3E%3C%2FmxGraphModel%3E&lt;/span&gt;" style="rounded=0;whiteSpace=wrap;html=1;fillColor=#dae8fc;strokeColor=#6c8ebf;" vertex="1" parent="1">
          <mxGeometry x="580" y="1320" width="40" height="40" as="geometry" />
        </mxCell>
        <mxCell id="J9iAy3apQVE2GlNHFhud-198" value="30&lt;span style=&quot;color: rgba(0, 0, 0, 0); font-family: monospace; font-size: 0px; text-align: start; text-wrap-mode: nowrap;&quot;&gt;%3CmxGraphModel%3E%3Croot%3E%3CmxCell%20id%3D%220%22%2F%3E%3CmxCell%20id%3D%221%22%20parent%3D%220%22%2F%3E%3CmxCell%20id%3D%222%22%20value%3D%2225%22%20style%3D%22rounded%3D0%3BwhiteSpace%3Dwrap%3Bhtml%3D1%3B%22%20vertex%3D%221%22%20parent%3D%221%22%3E%3CmxGeometry%20x%3D%22660%22%20y%3D%221360%22%20width%3D%2240%22%20height%3D%2240%22%20as%3D%22geometry%22%2F%3E%3C%2FmxCell%3E%3CmxCell%20id%3D%223%22%20value%3D%2224%22%20style%3D%22rounded%3D0%3BwhiteSpace%3Dwrap%3Bhtml%3D1%3B%22%20vertex%3D%221%22%20parent%3D%221%22%3E%3CmxGeometry%20x%3D%22620%22%20y%3D%221360%22%20width%3D%2240%22%20height%3D%2240%22%20as%3D%22geometry%22%2F%3E%3C%2FmxCell%3E%3CmxCell%20id%3D%224%22%20value%3D%2223%22%20style%3D%22rounded%3D0%3BwhiteSpace%3Dwrap%3Bhtml%3D1%3B%22%20vertex%3D%221%22%20parent%3D%221%22%3E%3CmxGeometry%20x%3D%22580%22%20y%3D%221360%22%20width%3D%2240%22%20height%3D%2240%22%20as%3D%22geometry%22%2F%3E%3C%2FmxCell%3E%3CmxCell%20id%3D%225%22%20value%3D%2222%22%20style%3D%22rounded%3D0%3BwhiteSpace%3Dwrap%3Bhtml%3D1%3B%22%20vertex%3D%221%22%20parent%3D%221%22%3E%3CmxGeometry%20x%3D%22540%22%20y%3D%221360%22%20width%3D%2240%22%20height%3D%2240%22%20as%3D%22geometry%22%2F%3E%3C%2FmxCell%3E%3CmxCell%20id%3D%226%22%20value%3D%2210%22%20style%3D%22rounded%3D0%3BwhiteSpace%3Dwrap%3Bhtml%3D1%3B%22%20vertex%3D%221%22%20parent%3D%221%22%3E%3CmxGeometry%20x%3D%22500%22%20y%3D%221360%22%20width%3D%2240%22%20height%3D%2240%22%20as%3D%22geometry%22%2F%3E%3C%2FmxCell%3E%3CmxCell%20id%3D%227%22%20value%3D%2225%22%20style%3D%22rounded%3D0%3BwhiteSpace%3Dwrap%3Bhtml%3D1%3B%22%20vertex%3D%221%22%20parent%3D%221%22%3E%3CmxGeometry%20x%3D%22700%22%20y%3D%221360%22%20width%3D%2240%22%20height%3D%2240%22%20as%3D%22geometry%22%2F%3E%3C%2FmxCell%3E%3CmxCell%20id%3D%228%22%20value%3D%2225%22%20style%3D%22rounded%3D0%3BwhiteSpace%3Dwrap%3Bhtml%3D1%3B%22%20vertex%3D%221%22%20parent%3D%221%22%3E%3CmxGeometry%20x%3D%22740%22%20y%3D%221360%22%20width%3D%2240%22%20height%3D%2240%22%20as%3D%22geometry%22%2F%3E%3C%2FmxCell%3E%3CmxCell%20id%3D%229%22%20value%3D%2225%22%20style%3D%22rounded%3D0%3BwhiteSpace%3Dwrap%3Bhtml%3D1%3B%22%20vertex%3D%221%22%20parent%3D%221%22%3E%3CmxGeometry%20x%3D%22660%22%20y%3D%221400%22%20width%3D%2240%22%20height%3D%2240%22%20as%3D%22geometry%22%2F%3E%3C%2FmxCell%3E%3CmxCell%20id%3D%2210%22%20value%3D%2224%22%20style%3D%22rounded%3D0%3BwhiteSpace%3Dwrap%3Bhtml%3D1%3B%22%20vertex%3D%221%22%20parent%3D%221%22%3E%3CmxGeometry%20x%3D%22620%22%20y%3D%221400%22%20width%3D%2240%22%20height%3D%2240%22%20as%3D%22geometry%22%2F%3E%3C%2FmxCell%3E%3CmxCell%20id%3D%2211%22%20value%3D%2223%22%20style%3D%22rounded%3D0%3BwhiteSpace%3Dwrap%3Bhtml%3D1%3B%22%20vertex%3D%221%22%20parent%3D%221%22%3E%3CmxGeometry%20x%3D%22580%22%20y%3D%221400%22%20width%3D%2240%22%20height%3D%2240%22%20as%3D%22geometry%22%2F%3E%3C%2FmxCell%3E%3CmxCell%20id%3D%2212%22%20value%3D%2222%22%20style%3D%22rounded%3D0%3BwhiteSpace%3Dwrap%3Bhtml%3D1%3B%22%20vertex%3D%221%22%20parent%3D%221%22%3E%3CmxGeometry%20x%3D%22540%22%20y%3D%221400%22%20width%3D%2240%22%20height%3D%2240%22%20as%3D%22geometry%22%2F%3E%3C%2FmxCell%3E%3CmxCell%20id%3D%2213%22%20value%3D%2210%22%20style%3D%22rounded%3D0%3BwhiteSpace%3Dwrap%3Bhtml%3D1%3B%22%20vertex%3D%221%22%20parent%3D%221%22%3E%3CmxGeometry%20x%3D%22500%22%20y%3D%221400%22%20width%3D%2240%22%20height%3D%2240%22%20as%3D%22geometry%22%2F%3E%3C%2FmxCell%3E%3CmxCell%20id%3D%2214%22%20value%3D%2225%22%20style%3D%22rounded%3D0%3BwhiteSpace%3Dwrap%3Bhtml%3D1%3B%22%20vertex%3D%221%22%20parent%3D%221%22%3E%3CmxGeometry%20x%3D%22700%22%20y%3D%221400%22%20width%3D%2240%22%20height%3D%2240%22%20as%3D%22geometry%22%2F%3E%3C%2FmxCell%3E%3CmxCell%20id%3D%2215%22%20value%3D%2225%22%20style%3D%22rounded%3D0%3BwhiteSpace%3Dwrap%3Bhtml%3D1%3B%22%20vertex%3D%221%22%20parent%3D%221%22%3E%3CmxGeometry%20x%3D%22740%22%20y%3D%221400%22%20width%3D%2240%22%20height%3D%2240%22%20as%3D%22geometry%22%2F%3E%3C%2FmxCell%3E%3C%2Froot%3E%3C%2FmxGraphModel%3E&lt;/span&gt;" style="rounded=0;whiteSpace=wrap;html=1;fillColor=#dae8fc;strokeColor=#6c8ebf;" vertex="1" parent="1">
          <mxGeometry x="580" y="1360" width="40" height="40" as="geometry" />
        </mxCell>
        <mxCell id="J9iAy3apQVE2GlNHFhud-199" value="30&lt;span style=&quot;color: rgba(0, 0, 0, 0); font-family: monospace; font-size: 0px; text-align: start; text-wrap-mode: nowrap;&quot;&gt;%3CmxGraphModel%3E%3Croot%3E%3CmxCell%20id%3D%220%22%2F%3E%3CmxCell%20id%3D%221%22%20parent%3D%220%22%2F%3E%3CmxCell%20id%3D%222%22%20value%3D%2225%22%20style%3D%22rounded%3D0%3BwhiteSpace%3Dwrap%3Bhtml%3D1%3B%22%20vertex%3D%221%22%20parent%3D%221%22%3E%3CmxGeometry%20x%3D%22660%22%20y%3D%221360%22%20width%3D%2240%22%20height%3D%2240%22%20as%3D%22geometry%22%2F%3E%3C%2FmxCell%3E%3CmxCell%20id%3D%223%22%20value%3D%2224%22%20style%3D%22rounded%3D0%3BwhiteSpace%3Dwrap%3Bhtml%3D1%3B%22%20vertex%3D%221%22%20parent%3D%221%22%3E%3CmxGeometry%20x%3D%22620%22%20y%3D%221360%22%20width%3D%2240%22%20height%3D%2240%22%20as%3D%22geometry%22%2F%3E%3C%2FmxCell%3E%3CmxCell%20id%3D%224%22%20value%3D%2223%22%20style%3D%22rounded%3D0%3BwhiteSpace%3Dwrap%3Bhtml%3D1%3B%22%20vertex%3D%221%22%20parent%3D%221%22%3E%3CmxGeometry%20x%3D%22580%22%20y%3D%221360%22%20width%3D%2240%22%20height%3D%2240%22%20as%3D%22geometry%22%2F%3E%3C%2FmxCell%3E%3CmxCell%20id%3D%225%22%20value%3D%2222%22%20style%3D%22rounded%3D0%3BwhiteSpace%3Dwrap%3Bhtml%3D1%3B%22%20vertex%3D%221%22%20parent%3D%221%22%3E%3CmxGeometry%20x%3D%22540%22%20y%3D%221360%22%20width%3D%2240%22%20height%3D%2240%22%20as%3D%22geometry%22%2F%3E%3C%2FmxCell%3E%3CmxCell%20id%3D%226%22%20value%3D%2210%22%20style%3D%22rounded%3D0%3BwhiteSpace%3Dwrap%3Bhtml%3D1%3B%22%20vertex%3D%221%22%20parent%3D%221%22%3E%3CmxGeometry%20x%3D%22500%22%20y%3D%221360%22%20width%3D%2240%22%20height%3D%2240%22%20as%3D%22geometry%22%2F%3E%3C%2FmxCell%3E%3CmxCell%20id%3D%227%22%20value%3D%2225%22%20style%3D%22rounded%3D0%3BwhiteSpace%3Dwrap%3Bhtml%3D1%3B%22%20vertex%3D%221%22%20parent%3D%221%22%3E%3CmxGeometry%20x%3D%22700%22%20y%3D%221360%22%20width%3D%2240%22%20height%3D%2240%22%20as%3D%22geometry%22%2F%3E%3C%2FmxCell%3E%3CmxCell%20id%3D%228%22%20value%3D%2225%22%20style%3D%22rounded%3D0%3BwhiteSpace%3Dwrap%3Bhtml%3D1%3B%22%20vertex%3D%221%22%20parent%3D%221%22%3E%3CmxGeometry%20x%3D%22740%22%20y%3D%221360%22%20width%3D%2240%22%20height%3D%2240%22%20as%3D%22geometry%22%2F%3E%3C%2FmxCell%3E%3CmxCell%20id%3D%229%22%20value%3D%2225%22%20style%3D%22rounded%3D0%3BwhiteSpace%3Dwrap%3Bhtml%3D1%3B%22%20vertex%3D%221%22%20parent%3D%221%22%3E%3CmxGeometry%20x%3D%22660%22%20y%3D%221400%22%20width%3D%2240%22%20height%3D%2240%22%20as%3D%22geometry%22%2F%3E%3C%2FmxCell%3E%3CmxCell%20id%3D%2210%22%20value%3D%2224%22%20style%3D%22rounded%3D0%3BwhiteSpace%3Dwrap%3Bhtml%3D1%3B%22%20vertex%3D%221%22%20parent%3D%221%22%3E%3CmxGeometry%20x%3D%22620%22%20y%3D%221400%22%20width%3D%2240%22%20height%3D%2240%22%20as%3D%22geometry%22%2F%3E%3C%2FmxCell%3E%3CmxCell%20id%3D%2211%22%20value%3D%2223%22%20style%3D%22rounded%3D0%3BwhiteSpace%3Dwrap%3Bhtml%3D1%3B%22%20vertex%3D%221%22%20parent%3D%221%22%3E%3CmxGeometry%20x%3D%22580%22%20y%3D%221400%22%20width%3D%2240%22%20height%3D%2240%22%20as%3D%22geometry%22%2F%3E%3C%2FmxCell%3E%3CmxCell%20id%3D%2212%22%20value%3D%2222%22%20style%3D%22rounded%3D0%3BwhiteSpace%3Dwrap%3Bhtml%3D1%3B%22%20vertex%3D%221%22%20parent%3D%221%22%3E%3CmxGeometry%20x%3D%22540%22%20y%3D%221400%22%20width%3D%2240%22%20height%3D%2240%22%20as%3D%22geometry%22%2F%3E%3C%2FmxCell%3E%3CmxCell%20id%3D%2213%22%20value%3D%2210%22%20style%3D%22rounded%3D0%3BwhiteSpace%3Dwrap%3Bhtml%3D1%3B%22%20vertex%3D%221%22%20parent%3D%221%22%3E%3CmxGeometry%20x%3D%22500%22%20y%3D%221400%22%20width%3D%2240%22%20height%3D%2240%22%20as%3D%22geometry%22%2F%3E%3C%2FmxCell%3E%3CmxCell%20id%3D%2214%22%20value%3D%2225%22%20style%3D%22rounded%3D0%3BwhiteSpace%3Dwrap%3Bhtml%3D1%3B%22%20vertex%3D%221%22%20parent%3D%221%22%3E%3CmxGeometry%20x%3D%22700%22%20y%3D%221400%22%20width%3D%2240%22%20height%3D%2240%22%20as%3D%22geometry%22%2F%3E%3C%2FmxCell%3E%3CmxCell%20id%3D%2215%22%20value%3D%2225%22%20style%3D%22rounded%3D0%3BwhiteSpace%3Dwrap%3Bhtml%3D1%3B%22%20vertex%3D%221%22%20parent%3D%221%22%3E%3CmxGeometry%20x%3D%22740%22%20y%3D%221400%22%20width%3D%2240%22%20height%3D%2240%22%20as%3D%22geometry%22%2F%3E%3C%2FmxCell%3E%3C%2Froot%3E%3C%2FmxGraphModel%3E&lt;/span&gt;" style="rounded=0;whiteSpace=wrap;html=1;fillColor=#dae8fc;strokeColor=#6c8ebf;" vertex="1" parent="1">
          <mxGeometry x="580" y="1400" width="40" height="40" as="geometry" />
        </mxCell>
        <mxCell id="J9iAy3apQVE2GlNHFhud-200" value="30&lt;span style=&quot;color: rgba(0, 0, 0, 0); font-family: monospace; font-size: 0px; text-align: start; text-wrap-mode: nowrap;&quot;&gt;%3CmxGraphModel%3E%3Croot%3E%3CmxCell%20id%3D%220%22%2F%3E%3CmxCell%20id%3D%221%22%20parent%3D%220%22%2F%3E%3CmxCell%20id%3D%222%22%20value%3D%2225%22%20style%3D%22rounded%3D0%3BwhiteSpace%3Dwrap%3Bhtml%3D1%3B%22%20vertex%3D%221%22%20parent%3D%221%22%3E%3CmxGeometry%20x%3D%22660%22%20y%3D%221360%22%20width%3D%2240%22%20height%3D%2240%22%20as%3D%22geometry%22%2F%3E%3C%2FmxCell%3E%3CmxCell%20id%3D%223%22%20value%3D%2224%22%20style%3D%22rounded%3D0%3BwhiteSpace%3Dwrap%3Bhtml%3D1%3B%22%20vertex%3D%221%22%20parent%3D%221%22%3E%3CmxGeometry%20x%3D%22620%22%20y%3D%221360%22%20width%3D%2240%22%20height%3D%2240%22%20as%3D%22geometry%22%2F%3E%3C%2FmxCell%3E%3CmxCell%20id%3D%224%22%20value%3D%2223%22%20style%3D%22rounded%3D0%3BwhiteSpace%3Dwrap%3Bhtml%3D1%3B%22%20vertex%3D%221%22%20parent%3D%221%22%3E%3CmxGeometry%20x%3D%22580%22%20y%3D%221360%22%20width%3D%2240%22%20height%3D%2240%22%20as%3D%22geometry%22%2F%3E%3C%2FmxCell%3E%3CmxCell%20id%3D%225%22%20value%3D%2222%22%20style%3D%22rounded%3D0%3BwhiteSpace%3Dwrap%3Bhtml%3D1%3B%22%20vertex%3D%221%22%20parent%3D%221%22%3E%3CmxGeometry%20x%3D%22540%22%20y%3D%221360%22%20width%3D%2240%22%20height%3D%2240%22%20as%3D%22geometry%22%2F%3E%3C%2FmxCell%3E%3CmxCell%20id%3D%226%22%20value%3D%2210%22%20style%3D%22rounded%3D0%3BwhiteSpace%3Dwrap%3Bhtml%3D1%3B%22%20vertex%3D%221%22%20parent%3D%221%22%3E%3CmxGeometry%20x%3D%22500%22%20y%3D%221360%22%20width%3D%2240%22%20height%3D%2240%22%20as%3D%22geometry%22%2F%3E%3C%2FmxCell%3E%3CmxCell%20id%3D%227%22%20value%3D%2225%22%20style%3D%22rounded%3D0%3BwhiteSpace%3Dwrap%3Bhtml%3D1%3B%22%20vertex%3D%221%22%20parent%3D%221%22%3E%3CmxGeometry%20x%3D%22700%22%20y%3D%221360%22%20width%3D%2240%22%20height%3D%2240%22%20as%3D%22geometry%22%2F%3E%3C%2FmxCell%3E%3CmxCell%20id%3D%228%22%20value%3D%2225%22%20style%3D%22rounded%3D0%3BwhiteSpace%3Dwrap%3Bhtml%3D1%3B%22%20vertex%3D%221%22%20parent%3D%221%22%3E%3CmxGeometry%20x%3D%22740%22%20y%3D%221360%22%20width%3D%2240%22%20height%3D%2240%22%20as%3D%22geometry%22%2F%3E%3C%2FmxCell%3E%3CmxCell%20id%3D%229%22%20value%3D%2225%22%20style%3D%22rounded%3D0%3BwhiteSpace%3Dwrap%3Bhtml%3D1%3B%22%20vertex%3D%221%22%20parent%3D%221%22%3E%3CmxGeometry%20x%3D%22660%22%20y%3D%221400%22%20width%3D%2240%22%20height%3D%2240%22%20as%3D%22geometry%22%2F%3E%3C%2FmxCell%3E%3CmxCell%20id%3D%2210%22%20value%3D%2224%22%20style%3D%22rounded%3D0%3BwhiteSpace%3Dwrap%3Bhtml%3D1%3B%22%20vertex%3D%221%22%20parent%3D%221%22%3E%3CmxGeometry%20x%3D%22620%22%20y%3D%221400%22%20width%3D%2240%22%20height%3D%2240%22%20as%3D%22geometry%22%2F%3E%3C%2FmxCell%3E%3CmxCell%20id%3D%2211%22%20value%3D%2223%22%20style%3D%22rounded%3D0%3BwhiteSpace%3Dwrap%3Bhtml%3D1%3B%22%20vertex%3D%221%22%20parent%3D%221%22%3E%3CmxGeometry%20x%3D%22580%22%20y%3D%221400%22%20width%3D%2240%22%20height%3D%2240%22%20as%3D%22geometry%22%2F%3E%3C%2FmxCell%3E%3CmxCell%20id%3D%2212%22%20value%3D%2222%22%20style%3D%22rounded%3D0%3BwhiteSpace%3Dwrap%3Bhtml%3D1%3B%22%20vertex%3D%221%22%20parent%3D%221%22%3E%3CmxGeometry%20x%3D%22540%22%20y%3D%221400%22%20width%3D%2240%22%20height%3D%2240%22%20as%3D%22geometry%22%2F%3E%3C%2FmxCell%3E%3CmxCell%20id%3D%2213%22%20value%3D%2210%22%20style%3D%22rounded%3D0%3BwhiteSpace%3Dwrap%3Bhtml%3D1%3B%22%20vertex%3D%221%22%20parent%3D%221%22%3E%3CmxGeometry%20x%3D%22500%22%20y%3D%221400%22%20width%3D%2240%22%20height%3D%2240%22%20as%3D%22geometry%22%2F%3E%3C%2FmxCell%3E%3CmxCell%20id%3D%2214%22%20value%3D%2225%22%20style%3D%22rounded%3D0%3BwhiteSpace%3Dwrap%3Bhtml%3D1%3B%22%20vertex%3D%221%22%20parent%3D%221%22%3E%3CmxGeometry%20x%3D%22700%22%20y%3D%221400%22%20width%3D%2240%22%20height%3D%2240%22%20as%3D%22geometry%22%2F%3E%3C%2FmxCell%3E%3CmxCell%20id%3D%2215%22%20value%3D%2225%22%20style%3D%22rounded%3D0%3BwhiteSpace%3Dwrap%3Bhtml%3D1%3B%22%20vertex%3D%221%22%20parent%3D%221%22%3E%3CmxGeometry%20x%3D%22740%22%20y%3D%221400%22%20width%3D%2240%22%20height%3D%2240%22%20as%3D%22geometry%22%2F%3E%3C%2FmxCell%3E%3C%2Froot%3E%3C%2FmxGraphModel%3E&lt;/span&gt;" style="rounded=0;whiteSpace=wrap;html=1;fillColor=#dae8fc;strokeColor=#6c8ebf;" vertex="1" parent="1">
          <mxGeometry x="580" y="1440" width="40" height="40" as="geometry" />
        </mxCell>
        <mxCell id="J9iAy3apQVE2GlNHFhud-201" value="30&lt;span style=&quot;color: rgba(0, 0, 0, 0); font-family: monospace; font-size: 0px; text-align: start; text-wrap-mode: nowrap;&quot;&gt;%3CmxGraphModel%3E%3Croot%3E%3CmxCell%20id%3D%220%22%2F%3E%3CmxCell%20id%3D%221%22%20parent%3D%220%22%2F%3E%3CmxCell%20id%3D%222%22%20value%3D%2225%22%20style%3D%22rounded%3D0%3BwhiteSpace%3Dwrap%3Bhtml%3D1%3B%22%20vertex%3D%221%22%20parent%3D%221%22%3E%3CmxGeometry%20x%3D%22660%22%20y%3D%221360%22%20width%3D%2240%22%20height%3D%2240%22%20as%3D%22geometry%22%2F%3E%3C%2FmxCell%3E%3CmxCell%20id%3D%223%22%20value%3D%2224%22%20style%3D%22rounded%3D0%3BwhiteSpace%3Dwrap%3Bhtml%3D1%3B%22%20vertex%3D%221%22%20parent%3D%221%22%3E%3CmxGeometry%20x%3D%22620%22%20y%3D%221360%22%20width%3D%2240%22%20height%3D%2240%22%20as%3D%22geometry%22%2F%3E%3C%2FmxCell%3E%3CmxCell%20id%3D%224%22%20value%3D%2223%22%20style%3D%22rounded%3D0%3BwhiteSpace%3Dwrap%3Bhtml%3D1%3B%22%20vertex%3D%221%22%20parent%3D%221%22%3E%3CmxGeometry%20x%3D%22580%22%20y%3D%221360%22%20width%3D%2240%22%20height%3D%2240%22%20as%3D%22geometry%22%2F%3E%3C%2FmxCell%3E%3CmxCell%20id%3D%225%22%20value%3D%2222%22%20style%3D%22rounded%3D0%3BwhiteSpace%3Dwrap%3Bhtml%3D1%3B%22%20vertex%3D%221%22%20parent%3D%221%22%3E%3CmxGeometry%20x%3D%22540%22%20y%3D%221360%22%20width%3D%2240%22%20height%3D%2240%22%20as%3D%22geometry%22%2F%3E%3C%2FmxCell%3E%3CmxCell%20id%3D%226%22%20value%3D%2210%22%20style%3D%22rounded%3D0%3BwhiteSpace%3Dwrap%3Bhtml%3D1%3B%22%20vertex%3D%221%22%20parent%3D%221%22%3E%3CmxGeometry%20x%3D%22500%22%20y%3D%221360%22%20width%3D%2240%22%20height%3D%2240%22%20as%3D%22geometry%22%2F%3E%3C%2FmxCell%3E%3CmxCell%20id%3D%227%22%20value%3D%2225%22%20style%3D%22rounded%3D0%3BwhiteSpace%3Dwrap%3Bhtml%3D1%3B%22%20vertex%3D%221%22%20parent%3D%221%22%3E%3CmxGeometry%20x%3D%22700%22%20y%3D%221360%22%20width%3D%2240%22%20height%3D%2240%22%20as%3D%22geometry%22%2F%3E%3C%2FmxCell%3E%3CmxCell%20id%3D%228%22%20value%3D%2225%22%20style%3D%22rounded%3D0%3BwhiteSpace%3Dwrap%3Bhtml%3D1%3B%22%20vertex%3D%221%22%20parent%3D%221%22%3E%3CmxGeometry%20x%3D%22740%22%20y%3D%221360%22%20width%3D%2240%22%20height%3D%2240%22%20as%3D%22geometry%22%2F%3E%3C%2FmxCell%3E%3CmxCell%20id%3D%229%22%20value%3D%2225%22%20style%3D%22rounded%3D0%3BwhiteSpace%3Dwrap%3Bhtml%3D1%3B%22%20vertex%3D%221%22%20parent%3D%221%22%3E%3CmxGeometry%20x%3D%22660%22%20y%3D%221400%22%20width%3D%2240%22%20height%3D%2240%22%20as%3D%22geometry%22%2F%3E%3C%2FmxCell%3E%3CmxCell%20id%3D%2210%22%20value%3D%2224%22%20style%3D%22rounded%3D0%3BwhiteSpace%3Dwrap%3Bhtml%3D1%3B%22%20vertex%3D%221%22%20parent%3D%221%22%3E%3CmxGeometry%20x%3D%22620%22%20y%3D%221400%22%20width%3D%2240%22%20height%3D%2240%22%20as%3D%22geometry%22%2F%3E%3C%2FmxCell%3E%3CmxCell%20id%3D%2211%22%20value%3D%2223%22%20style%3D%22rounded%3D0%3BwhiteSpace%3Dwrap%3Bhtml%3D1%3B%22%20vertex%3D%221%22%20parent%3D%221%22%3E%3CmxGeometry%20x%3D%22580%22%20y%3D%221400%22%20width%3D%2240%22%20height%3D%2240%22%20as%3D%22geometry%22%2F%3E%3C%2FmxCell%3E%3CmxCell%20id%3D%2212%22%20value%3D%2222%22%20style%3D%22rounded%3D0%3BwhiteSpace%3Dwrap%3Bhtml%3D1%3B%22%20vertex%3D%221%22%20parent%3D%221%22%3E%3CmxGeometry%20x%3D%22540%22%20y%3D%221400%22%20width%3D%2240%22%20height%3D%2240%22%20as%3D%22geometry%22%2F%3E%3C%2FmxCell%3E%3CmxCell%20id%3D%2213%22%20value%3D%2210%22%20style%3D%22rounded%3D0%3BwhiteSpace%3Dwrap%3Bhtml%3D1%3B%22%20vertex%3D%221%22%20parent%3D%221%22%3E%3CmxGeometry%20x%3D%22500%22%20y%3D%221400%22%20width%3D%2240%22%20height%3D%2240%22%20as%3D%22geometry%22%2F%3E%3C%2FmxCell%3E%3CmxCell%20id%3D%2214%22%20value%3D%2225%22%20style%3D%22rounded%3D0%3BwhiteSpace%3Dwrap%3Bhtml%3D1%3B%22%20vertex%3D%221%22%20parent%3D%221%22%3E%3CmxGeometry%20x%3D%22700%22%20y%3D%221400%22%20width%3D%2240%22%20height%3D%2240%22%20as%3D%22geometry%22%2F%3E%3C%2FmxCell%3E%3CmxCell%20id%3D%2215%22%20value%3D%2225%22%20style%3D%22rounded%3D0%3BwhiteSpace%3Dwrap%3Bhtml%3D1%3B%22%20vertex%3D%221%22%20parent%3D%221%22%3E%3CmxGeometry%20x%3D%22740%22%20y%3D%221400%22%20width%3D%2240%22%20height%3D%2240%22%20as%3D%22geometry%22%2F%3E%3C%2FmxCell%3E%3C%2Froot%3E%3C%2FmxGraphModel%3E&lt;/span&gt;" style="rounded=0;whiteSpace=wrap;html=1;fillColor=#dae8fc;strokeColor=#6c8ebf;" vertex="1" parent="1">
          <mxGeometry x="580" y="1480" width="40" height="40" as="geometry" />
        </mxCell>
        <mxCell id="J9iAy3apQVE2GlNHFhud-202" value="40" style="rounded=0;whiteSpace=wrap;html=1;fillColor=#dae8fc;strokeColor=#6c8ebf;" vertex="1" parent="1">
          <mxGeometry x="620" y="1200" width="40" height="40" as="geometry" />
        </mxCell>
        <mxCell id="J9iAy3apQVE2GlNHFhud-203" value="40" style="rounded=0;whiteSpace=wrap;html=1;fillColor=#dae8fc;strokeColor=#6c8ebf;" vertex="1" parent="1">
          <mxGeometry x="620" y="1240" width="40" height="40" as="geometry" />
        </mxCell>
        <mxCell id="J9iAy3apQVE2GlNHFhud-204" value="40" style="rounded=0;whiteSpace=wrap;html=1;fillColor=#dae8fc;strokeColor=#6c8ebf;" vertex="1" parent="1">
          <mxGeometry x="620" y="1280" width="40" height="40" as="geometry" />
        </mxCell>
        <mxCell id="J9iAy3apQVE2GlNHFhud-205" value="40" style="rounded=0;whiteSpace=wrap;html=1;fillColor=#dae8fc;strokeColor=#6c8ebf;" vertex="1" parent="1">
          <mxGeometry x="620" y="1320" width="40" height="40" as="geometry" />
        </mxCell>
        <mxCell id="J9iAy3apQVE2GlNHFhud-206" value="40" style="rounded=0;whiteSpace=wrap;html=1;fillColor=#dae8fc;strokeColor=#6c8ebf;" vertex="1" parent="1">
          <mxGeometry x="620" y="1360" width="40" height="40" as="geometry" />
        </mxCell>
        <mxCell id="J9iAy3apQVE2GlNHFhud-207" value="40" style="rounded=0;whiteSpace=wrap;html=1;fillColor=#dae8fc;strokeColor=#6c8ebf;" vertex="1" parent="1">
          <mxGeometry x="620" y="1400" width="40" height="40" as="geometry" />
        </mxCell>
        <mxCell id="J9iAy3apQVE2GlNHFhud-208" value="40" style="rounded=0;whiteSpace=wrap;html=1;fillColor=#dae8fc;strokeColor=#6c8ebf;" vertex="1" parent="1">
          <mxGeometry x="620" y="1440" width="40" height="40" as="geometry" />
        </mxCell>
        <mxCell id="J9iAy3apQVE2GlNHFhud-209" value="40" style="rounded=0;whiteSpace=wrap;html=1;fillColor=#dae8fc;strokeColor=#6c8ebf;" vertex="1" parent="1">
          <mxGeometry x="620" y="1480" width="40" height="40" as="geometry" />
        </mxCell>
        <mxCell id="J9iAy3apQVE2GlNHFhud-210" value="50" style="rounded=0;whiteSpace=wrap;html=1;fillColor=#dae8fc;strokeColor=#6c8ebf;" vertex="1" parent="1">
          <mxGeometry x="660" y="1200" width="40" height="40" as="geometry" />
        </mxCell>
        <mxCell id="J9iAy3apQVE2GlNHFhud-211" value="50" style="rounded=0;whiteSpace=wrap;html=1;fillColor=#dae8fc;strokeColor=#6c8ebf;" vertex="1" parent="1">
          <mxGeometry x="660" y="1240" width="40" height="40" as="geometry" />
        </mxCell>
        <mxCell id="J9iAy3apQVE2GlNHFhud-212" value="50" style="rounded=0;whiteSpace=wrap;html=1;fillColor=#dae8fc;strokeColor=#6c8ebf;" vertex="1" parent="1">
          <mxGeometry x="660" y="1280" width="40" height="40" as="geometry" />
        </mxCell>
        <mxCell id="J9iAy3apQVE2GlNHFhud-213" value="50" style="rounded=0;whiteSpace=wrap;html=1;fillColor=#dae8fc;strokeColor=#6c8ebf;" vertex="1" parent="1">
          <mxGeometry x="660" y="1320" width="40" height="40" as="geometry" />
        </mxCell>
        <mxCell id="J9iAy3apQVE2GlNHFhud-214" value="50" style="rounded=0;whiteSpace=wrap;html=1;direction=west;fillColor=#dae8fc;strokeColor=#6c8ebf;" vertex="1" parent="1">
          <mxGeometry x="660" y="1360" width="40" height="40" as="geometry" />
        </mxCell>
        <mxCell id="J9iAy3apQVE2GlNHFhud-215" value="50" style="rounded=0;whiteSpace=wrap;html=1;fillColor=#dae8fc;strokeColor=#6c8ebf;" vertex="1" parent="1">
          <mxGeometry x="660" y="1400" width="40" height="40" as="geometry" />
        </mxCell>
        <mxCell id="J9iAy3apQVE2GlNHFhud-216" value="50" style="rounded=0;whiteSpace=wrap;html=1;fillColor=#dae8fc;strokeColor=#6c8ebf;" vertex="1" parent="1">
          <mxGeometry x="660" y="1440" width="40" height="40" as="geometry" />
        </mxCell>
        <mxCell id="J9iAy3apQVE2GlNHFhud-217" value="50" style="rounded=0;whiteSpace=wrap;html=1;fillColor=#dae8fc;strokeColor=#6c8ebf;" vertex="1" parent="1">
          <mxGeometry x="660" y="1480" width="40" height="40" as="geometry" />
        </mxCell>
        <mxCell id="J9iAy3apQVE2GlNHFhud-218" value="60" style="rounded=0;whiteSpace=wrap;html=1;fillColor=#dae8fc;strokeColor=#6c8ebf;" vertex="1" parent="1">
          <mxGeometry x="700" y="1200" width="40" height="40" as="geometry" />
        </mxCell>
        <mxCell id="J9iAy3apQVE2GlNHFhud-219" value="60" style="rounded=0;whiteSpace=wrap;html=1;fillColor=#dae8fc;strokeColor=#6c8ebf;" vertex="1" parent="1">
          <mxGeometry x="700" y="1240" width="40" height="40" as="geometry" />
        </mxCell>
        <mxCell id="J9iAy3apQVE2GlNHFhud-220" value="60" style="rounded=0;whiteSpace=wrap;html=1;fillColor=#dae8fc;strokeColor=#6c8ebf;" vertex="1" parent="1">
          <mxGeometry x="700" y="1280" width="40" height="40" as="geometry" />
        </mxCell>
        <mxCell id="J9iAy3apQVE2GlNHFhud-221" value="60" style="rounded=0;whiteSpace=wrap;html=1;fillColor=#dae8fc;strokeColor=#6c8ebf;" vertex="1" parent="1">
          <mxGeometry x="700" y="1320" width="40" height="40" as="geometry" />
        </mxCell>
        <mxCell id="J9iAy3apQVE2GlNHFhud-222" value="60" style="rounded=0;whiteSpace=wrap;html=1;fillColor=#dae8fc;strokeColor=#6c8ebf;" vertex="1" parent="1">
          <mxGeometry x="700" y="1360" width="40" height="40" as="geometry" />
        </mxCell>
        <mxCell id="J9iAy3apQVE2GlNHFhud-223" value="60" style="rounded=0;whiteSpace=wrap;html=1;fillColor=#dae8fc;strokeColor=#6c8ebf;" vertex="1" parent="1">
          <mxGeometry x="700" y="1400" width="40" height="40" as="geometry" />
        </mxCell>
        <mxCell id="J9iAy3apQVE2GlNHFhud-224" value="60" style="rounded=0;whiteSpace=wrap;html=1;fillColor=#dae8fc;strokeColor=#6c8ebf;" vertex="1" parent="1">
          <mxGeometry x="700" y="1440" width="40" height="40" as="geometry" />
        </mxCell>
        <mxCell id="J9iAy3apQVE2GlNHFhud-225" value="60" style="rounded=0;whiteSpace=wrap;html=1;fillColor=#dae8fc;strokeColor=#6c8ebf;" vertex="1" parent="1">
          <mxGeometry x="700" y="1480" width="40" height="40" as="geometry" />
        </mxCell>
        <mxCell id="J9iAy3apQVE2GlNHFhud-226" value="70" style="rounded=0;whiteSpace=wrap;html=1;fillColor=#dae8fc;strokeColor=#6c8ebf;" vertex="1" parent="1">
          <mxGeometry x="740" y="1200" width="40" height="40" as="geometry" />
        </mxCell>
        <mxCell id="J9iAy3apQVE2GlNHFhud-227" value="70" style="rounded=0;whiteSpace=wrap;html=1;fillColor=#dae8fc;strokeColor=#6c8ebf;" vertex="1" parent="1">
          <mxGeometry x="740" y="1240" width="40" height="40" as="geometry" />
        </mxCell>
        <mxCell id="J9iAy3apQVE2GlNHFhud-228" value="70" style="rounded=0;whiteSpace=wrap;html=1;fillColor=#dae8fc;strokeColor=#6c8ebf;" vertex="1" parent="1">
          <mxGeometry x="740" y="1280" width="40" height="40" as="geometry" />
        </mxCell>
        <mxCell id="J9iAy3apQVE2GlNHFhud-229" value="70" style="rounded=0;whiteSpace=wrap;html=1;fillColor=#dae8fc;strokeColor=#6c8ebf;" vertex="1" parent="1">
          <mxGeometry x="740" y="1320" width="40" height="40" as="geometry" />
        </mxCell>
        <mxCell id="J9iAy3apQVE2GlNHFhud-230" value="70" style="rounded=0;whiteSpace=wrap;html=1;fillColor=#dae8fc;strokeColor=#6c8ebf;" vertex="1" parent="1">
          <mxGeometry x="740" y="1360" width="40" height="40" as="geometry" />
        </mxCell>
        <mxCell id="J9iAy3apQVE2GlNHFhud-231" value="70" style="rounded=0;whiteSpace=wrap;html=1;fillColor=#dae8fc;strokeColor=#6c8ebf;" vertex="1" parent="1">
          <mxGeometry x="740" y="1400" width="40" height="40" as="geometry" />
        </mxCell>
        <mxCell id="J9iAy3apQVE2GlNHFhud-232" value="70" style="rounded=0;whiteSpace=wrap;html=1;fillColor=#dae8fc;strokeColor=#6c8ebf;" vertex="1" parent="1">
          <mxGeometry x="740" y="1440" width="40" height="40" as="geometry" />
        </mxCell>
        <mxCell id="J9iAy3apQVE2GlNHFhud-233" value="70" style="rounded=0;whiteSpace=wrap;html=1;fillColor=#dae8fc;strokeColor=#6c8ebf;" vertex="1" parent="1">
          <mxGeometry x="740" y="1480" width="40" height="40" as="geometry" />
        </mxCell>
        <mxCell id="J9iAy3apQVE2GlNHFhud-234" value="80" style="rounded=0;whiteSpace=wrap;html=1;fillColor=#dae8fc;strokeColor=#6c8ebf;" vertex="1" parent="1">
          <mxGeometry x="780" y="1160" width="40" height="40" as="geometry" />
        </mxCell>
        <mxCell id="J9iAy3apQVE2GlNHFhud-235" value="10" style="rounded=0;whiteSpace=wrap;html=1;" vertex="1" parent="1">
          <mxGeometry x="780" y="1200" width="40" height="40" as="geometry" />
        </mxCell>
        <mxCell id="J9iAy3apQVE2GlNHFhud-236" value="15" style="rounded=0;whiteSpace=wrap;html=1;" vertex="1" parent="1">
          <mxGeometry x="780" y="1240" width="40" height="40" as="geometry" />
        </mxCell>
        <mxCell id="J9iAy3apQVE2GlNHFhud-237" value="20" style="rounded=0;whiteSpace=wrap;html=1;" vertex="1" parent="1">
          <mxGeometry x="780" y="1280" width="40" height="40" as="geometry" />
        </mxCell>
        <mxCell id="J9iAy3apQVE2GlNHFhud-238" value="25" style="rounded=0;whiteSpace=wrap;html=1;" vertex="1" parent="1">
          <mxGeometry x="780" y="1320" width="40" height="40" as="geometry" />
        </mxCell>
        <mxCell id="J9iAy3apQVE2GlNHFhud-239" value="25" style="rounded=0;whiteSpace=wrap;html=1;" vertex="1" parent="1">
          <mxGeometry x="780" y="1360" width="40" height="40" as="geometry" />
        </mxCell>
        <mxCell id="J9iAy3apQVE2GlNHFhud-240" value="25" style="rounded=0;whiteSpace=wrap;html=1;" vertex="1" parent="1">
          <mxGeometry x="780" y="1400" width="40" height="40" as="geometry" />
        </mxCell>
        <mxCell id="J9iAy3apQVE2GlNHFhud-241" value="25" style="rounded=0;whiteSpace=wrap;html=1;" vertex="1" parent="1">
          <mxGeometry x="780" y="1440" width="40" height="40" as="geometry" />
        </mxCell>
        <mxCell id="J9iAy3apQVE2GlNHFhud-242" value="25" style="rounded=0;whiteSpace=wrap;html=1;" vertex="1" parent="1">
          <mxGeometry x="780" y="1480" width="40" height="40" as="geometry" />
        </mxCell>
        <mxCell id="J9iAy3apQVE2GlNHFhud-243" value="70" style="rounded=0;whiteSpace=wrap;html=1;" vertex="1" parent="1">
          <mxGeometry x="780" y="1200" width="40" height="40" as="geometry" />
        </mxCell>
        <mxCell id="J9iAy3apQVE2GlNHFhud-244" value="70" style="rounded=0;whiteSpace=wrap;html=1;" vertex="1" parent="1">
          <mxGeometry x="780" y="1240" width="40" height="40" as="geometry" />
        </mxCell>
        <mxCell id="J9iAy3apQVE2GlNHFhud-245" value="70" style="rounded=0;whiteSpace=wrap;html=1;" vertex="1" parent="1">
          <mxGeometry x="780" y="1280" width="40" height="40" as="geometry" />
        </mxCell>
        <mxCell id="J9iAy3apQVE2GlNHFhud-246" value="70" style="rounded=0;whiteSpace=wrap;html=1;" vertex="1" parent="1">
          <mxGeometry x="780" y="1320" width="40" height="40" as="geometry" />
        </mxCell>
        <mxCell id="J9iAy3apQVE2GlNHFhud-247" value="70" style="rounded=0;whiteSpace=wrap;html=1;" vertex="1" parent="1">
          <mxGeometry x="780" y="1360" width="40" height="40" as="geometry" />
        </mxCell>
        <mxCell id="J9iAy3apQVE2GlNHFhud-248" value="70" style="rounded=0;whiteSpace=wrap;html=1;" vertex="1" parent="1">
          <mxGeometry x="780" y="1400" width="40" height="40" as="geometry" />
        </mxCell>
        <mxCell id="J9iAy3apQVE2GlNHFhud-249" value="70" style="rounded=0;whiteSpace=wrap;html=1;" vertex="1" parent="1">
          <mxGeometry x="780" y="1440" width="40" height="40" as="geometry" />
        </mxCell>
        <mxCell id="J9iAy3apQVE2GlNHFhud-250" value="70" style="rounded=0;whiteSpace=wrap;html=1;" vertex="1" parent="1">
          <mxGeometry x="780" y="1480" width="40" height="40" as="geometry" />
        </mxCell>
        <mxCell id="J9iAy3apQVE2GlNHFhud-251" value="90" style="rounded=0;whiteSpace=wrap;html=1;fillColor=#dae8fc;strokeColor=#6c8ebf;" vertex="1" parent="1">
          <mxGeometry x="820" y="1160" width="40" height="40" as="geometry" />
        </mxCell>
        <mxCell id="J9iAy3apQVE2GlNHFhud-252" value="10" style="rounded=0;whiteSpace=wrap;html=1;" vertex="1" parent="1">
          <mxGeometry x="820" y="1200" width="40" height="40" as="geometry" />
        </mxCell>
        <mxCell id="J9iAy3apQVE2GlNHFhud-253" value="15" style="rounded=0;whiteSpace=wrap;html=1;" vertex="1" parent="1">
          <mxGeometry x="820" y="1240" width="40" height="40" as="geometry" />
        </mxCell>
        <mxCell id="J9iAy3apQVE2GlNHFhud-254" value="20" style="rounded=0;whiteSpace=wrap;html=1;" vertex="1" parent="1">
          <mxGeometry x="820" y="1280" width="40" height="40" as="geometry" />
        </mxCell>
        <mxCell id="J9iAy3apQVE2GlNHFhud-255" value="25" style="rounded=0;whiteSpace=wrap;html=1;" vertex="1" parent="1">
          <mxGeometry x="820" y="1320" width="40" height="40" as="geometry" />
        </mxCell>
        <mxCell id="J9iAy3apQVE2GlNHFhud-256" value="25" style="rounded=0;whiteSpace=wrap;html=1;" vertex="1" parent="1">
          <mxGeometry x="820" y="1360" width="40" height="40" as="geometry" />
        </mxCell>
        <mxCell id="J9iAy3apQVE2GlNHFhud-257" value="25" style="rounded=0;whiteSpace=wrap;html=1;" vertex="1" parent="1">
          <mxGeometry x="820" y="1400" width="40" height="40" as="geometry" />
        </mxCell>
        <mxCell id="J9iAy3apQVE2GlNHFhud-258" value="25" style="rounded=0;whiteSpace=wrap;html=1;" vertex="1" parent="1">
          <mxGeometry x="820" y="1440" width="40" height="40" as="geometry" />
        </mxCell>
        <mxCell id="J9iAy3apQVE2GlNHFhud-259" value="25" style="rounded=0;whiteSpace=wrap;html=1;" vertex="1" parent="1">
          <mxGeometry x="820" y="1480" width="40" height="40" as="geometry" />
        </mxCell>
        <mxCell id="J9iAy3apQVE2GlNHFhud-260" value="70" style="rounded=0;whiteSpace=wrap;html=1;" vertex="1" parent="1">
          <mxGeometry x="820" y="1200" width="40" height="40" as="geometry" />
        </mxCell>
        <mxCell id="J9iAy3apQVE2GlNHFhud-261" value="70" style="rounded=0;whiteSpace=wrap;html=1;" vertex="1" parent="1">
          <mxGeometry x="820" y="1240" width="40" height="40" as="geometry" />
        </mxCell>
        <mxCell id="J9iAy3apQVE2GlNHFhud-262" value="70" style="rounded=0;whiteSpace=wrap;html=1;" vertex="1" parent="1">
          <mxGeometry x="820" y="1280" width="40" height="40" as="geometry" />
        </mxCell>
        <mxCell id="J9iAy3apQVE2GlNHFhud-263" value="70" style="rounded=0;whiteSpace=wrap;html=1;" vertex="1" parent="1">
          <mxGeometry x="820" y="1320" width="40" height="40" as="geometry" />
        </mxCell>
        <mxCell id="J9iAy3apQVE2GlNHFhud-264" value="70" style="rounded=0;whiteSpace=wrap;html=1;" vertex="1" parent="1">
          <mxGeometry x="820" y="1360" width="40" height="40" as="geometry" />
        </mxCell>
        <mxCell id="J9iAy3apQVE2GlNHFhud-265" value="70" style="rounded=0;whiteSpace=wrap;html=1;" vertex="1" parent="1">
          <mxGeometry x="820" y="1400" width="40" height="40" as="geometry" />
        </mxCell>
        <mxCell id="J9iAy3apQVE2GlNHFhud-266" value="70" style="rounded=0;whiteSpace=wrap;html=1;" vertex="1" parent="1">
          <mxGeometry x="820" y="1440" width="40" height="40" as="geometry" />
        </mxCell>
        <mxCell id="J9iAy3apQVE2GlNHFhud-267" value="70" style="rounded=0;whiteSpace=wrap;html=1;" vertex="1" parent="1">
          <mxGeometry x="820" y="1480" width="40" height="40" as="geometry" />
        </mxCell>
        <mxCell id="J9iAy3apQVE2GlNHFhud-268" value="100" style="rounded=0;whiteSpace=wrap;html=1;" vertex="1" parent="1">
          <mxGeometry x="860" y="1160" width="40" height="40" as="geometry" />
        </mxCell>
        <mxCell id="J9iAy3apQVE2GlNHFhud-269" value="10" style="rounded=0;whiteSpace=wrap;html=1;" vertex="1" parent="1">
          <mxGeometry x="860" y="1200" width="40" height="40" as="geometry" />
        </mxCell>
        <mxCell id="J9iAy3apQVE2GlNHFhud-270" value="15" style="rounded=0;whiteSpace=wrap;html=1;" vertex="1" parent="1">
          <mxGeometry x="860" y="1240" width="40" height="40" as="geometry" />
        </mxCell>
        <mxCell id="J9iAy3apQVE2GlNHFhud-271" value="20" style="rounded=0;whiteSpace=wrap;html=1;" vertex="1" parent="1">
          <mxGeometry x="860" y="1280" width="40" height="40" as="geometry" />
        </mxCell>
        <mxCell id="J9iAy3apQVE2GlNHFhud-272" value="25" style="rounded=0;whiteSpace=wrap;html=1;" vertex="1" parent="1">
          <mxGeometry x="860" y="1320" width="40" height="40" as="geometry" />
        </mxCell>
        <mxCell id="J9iAy3apQVE2GlNHFhud-273" value="25" style="rounded=0;whiteSpace=wrap;html=1;" vertex="1" parent="1">
          <mxGeometry x="860" y="1360" width="40" height="40" as="geometry" />
        </mxCell>
        <mxCell id="J9iAy3apQVE2GlNHFhud-274" value="25" style="rounded=0;whiteSpace=wrap;html=1;" vertex="1" parent="1">
          <mxGeometry x="860" y="1400" width="40" height="40" as="geometry" />
        </mxCell>
        <mxCell id="J9iAy3apQVE2GlNHFhud-275" value="25" style="rounded=0;whiteSpace=wrap;html=1;" vertex="1" parent="1">
          <mxGeometry x="860" y="1440" width="40" height="40" as="geometry" />
        </mxCell>
        <mxCell id="J9iAy3apQVE2GlNHFhud-276" value="25" style="rounded=0;whiteSpace=wrap;html=1;" vertex="1" parent="1">
          <mxGeometry x="860" y="1480" width="40" height="40" as="geometry" />
        </mxCell>
        <mxCell id="J9iAy3apQVE2GlNHFhud-277" value="100" style="rounded=0;whiteSpace=wrap;html=1;" vertex="1" parent="1">
          <mxGeometry x="860" y="1200" width="40" height="40" as="geometry" />
        </mxCell>
        <mxCell id="J9iAy3apQVE2GlNHFhud-278" value="70" style="rounded=0;whiteSpace=wrap;html=1;" vertex="1" parent="1">
          <mxGeometry x="860" y="1240" width="40" height="40" as="geometry" />
        </mxCell>
        <mxCell id="J9iAy3apQVE2GlNHFhud-279" value="70" style="rounded=0;whiteSpace=wrap;html=1;" vertex="1" parent="1">
          <mxGeometry x="860" y="1280" width="40" height="40" as="geometry" />
        </mxCell>
        <mxCell id="J9iAy3apQVE2GlNHFhud-280" value="70" style="rounded=0;whiteSpace=wrap;html=1;" vertex="1" parent="1">
          <mxGeometry x="860" y="1320" width="40" height="40" as="geometry" />
        </mxCell>
        <mxCell id="J9iAy3apQVE2GlNHFhud-281" value="70" style="rounded=0;whiteSpace=wrap;html=1;" vertex="1" parent="1">
          <mxGeometry x="860" y="1360" width="40" height="40" as="geometry" />
        </mxCell>
        <mxCell id="J9iAy3apQVE2GlNHFhud-282" value="70" style="rounded=0;whiteSpace=wrap;html=1;" vertex="1" parent="1">
          <mxGeometry x="860" y="1400" width="40" height="40" as="geometry" />
        </mxCell>
        <mxCell id="J9iAy3apQVE2GlNHFhud-283" value="70" style="rounded=0;whiteSpace=wrap;html=1;" vertex="1" parent="1">
          <mxGeometry x="860" y="1440" width="40" height="40" as="geometry" />
        </mxCell>
        <mxCell id="J9iAy3apQVE2GlNHFhud-284" value="70" style="rounded=0;whiteSpace=wrap;html=1;" vertex="1" parent="1">
          <mxGeometry x="860" y="1480" width="40" height="40" as="geometry" />
        </mxCell>
        <mxCell id="J9iAy3apQVE2GlNHFhud-285" value="110" style="rounded=0;whiteSpace=wrap;html=1;" vertex="1" parent="1">
          <mxGeometry x="900" y="1160" width="40" height="40" as="geometry" />
        </mxCell>
        <mxCell id="J9iAy3apQVE2GlNHFhud-286" value="10" style="rounded=0;whiteSpace=wrap;html=1;" vertex="1" parent="1">
          <mxGeometry x="900" y="1200" width="40" height="40" as="geometry" />
        </mxCell>
        <mxCell id="J9iAy3apQVE2GlNHFhud-287" value="15" style="rounded=0;whiteSpace=wrap;html=1;" vertex="1" parent="1">
          <mxGeometry x="900" y="1240" width="40" height="40" as="geometry" />
        </mxCell>
        <mxCell id="J9iAy3apQVE2GlNHFhud-288" value="20" style="rounded=0;whiteSpace=wrap;html=1;" vertex="1" parent="1">
          <mxGeometry x="900" y="1280" width="40" height="40" as="geometry" />
        </mxCell>
        <mxCell id="J9iAy3apQVE2GlNHFhud-289" value="25" style="rounded=0;whiteSpace=wrap;html=1;" vertex="1" parent="1">
          <mxGeometry x="900" y="1320" width="40" height="40" as="geometry" />
        </mxCell>
        <mxCell id="J9iAy3apQVE2GlNHFhud-290" value="25" style="rounded=0;whiteSpace=wrap;html=1;" vertex="1" parent="1">
          <mxGeometry x="900" y="1360" width="40" height="40" as="geometry" />
        </mxCell>
        <mxCell id="J9iAy3apQVE2GlNHFhud-291" value="25" style="rounded=0;whiteSpace=wrap;html=1;" vertex="1" parent="1">
          <mxGeometry x="900" y="1400" width="40" height="40" as="geometry" />
        </mxCell>
        <mxCell id="J9iAy3apQVE2GlNHFhud-292" value="25" style="rounded=0;whiteSpace=wrap;html=1;" vertex="1" parent="1">
          <mxGeometry x="900" y="1440" width="40" height="40" as="geometry" />
        </mxCell>
        <mxCell id="J9iAy3apQVE2GlNHFhud-293" value="25" style="rounded=0;whiteSpace=wrap;html=1;" vertex="1" parent="1">
          <mxGeometry x="900" y="1480" width="40" height="40" as="geometry" />
        </mxCell>
        <mxCell id="J9iAy3apQVE2GlNHFhud-294" value="70" style="rounded=0;whiteSpace=wrap;html=1;" vertex="1" parent="1">
          <mxGeometry x="900" y="1200" width="40" height="40" as="geometry" />
        </mxCell>
        <mxCell id="J9iAy3apQVE2GlNHFhud-295" value="70" style="rounded=0;whiteSpace=wrap;html=1;" vertex="1" parent="1">
          <mxGeometry x="900" y="1240" width="40" height="40" as="geometry" />
        </mxCell>
        <mxCell id="J9iAy3apQVE2GlNHFhud-296" value="70" style="rounded=0;whiteSpace=wrap;html=1;" vertex="1" parent="1">
          <mxGeometry x="900" y="1280" width="40" height="40" as="geometry" />
        </mxCell>
        <mxCell id="J9iAy3apQVE2GlNHFhud-297" value="70" style="rounded=0;whiteSpace=wrap;html=1;" vertex="1" parent="1">
          <mxGeometry x="900" y="1320" width="40" height="40" as="geometry" />
        </mxCell>
        <mxCell id="J9iAy3apQVE2GlNHFhud-298" value="70" style="rounded=0;whiteSpace=wrap;html=1;" vertex="1" parent="1">
          <mxGeometry x="900" y="1360" width="40" height="40" as="geometry" />
        </mxCell>
        <mxCell id="J9iAy3apQVE2GlNHFhud-299" value="70" style="rounded=0;whiteSpace=wrap;html=1;" vertex="1" parent="1">
          <mxGeometry x="900" y="1400" width="40" height="40" as="geometry" />
        </mxCell>
        <mxCell id="J9iAy3apQVE2GlNHFhud-300" value="70" style="rounded=0;whiteSpace=wrap;html=1;" vertex="1" parent="1">
          <mxGeometry x="900" y="1440" width="40" height="40" as="geometry" />
        </mxCell>
        <mxCell id="J9iAy3apQVE2GlNHFhud-301" value="70" style="rounded=0;whiteSpace=wrap;html=1;" vertex="1" parent="1">
          <mxGeometry x="900" y="1480" width="40" height="40" as="geometry" />
        </mxCell>
        <mxCell id="J9iAy3apQVE2GlNHFhud-302" value="80" style="rounded=0;whiteSpace=wrap;html=1;fillColor=#dae8fc;strokeColor=#6c8ebf;" vertex="1" parent="1">
          <mxGeometry x="780" y="1200" width="40" height="40" as="geometry" />
        </mxCell>
        <mxCell id="J9iAy3apQVE2GlNHFhud-303" value="80" style="rounded=0;whiteSpace=wrap;html=1;fillColor=#dae8fc;strokeColor=#6c8ebf;" vertex="1" parent="1">
          <mxGeometry x="780" y="1240" width="40" height="40" as="geometry" />
        </mxCell>
        <mxCell id="J9iAy3apQVE2GlNHFhud-304" value="80" style="rounded=0;whiteSpace=wrap;html=1;fillColor=#dae8fc;strokeColor=#6c8ebf;" vertex="1" parent="1">
          <mxGeometry x="780" y="1280" width="40" height="40" as="geometry" />
        </mxCell>
        <mxCell id="J9iAy3apQVE2GlNHFhud-305" value="80" style="rounded=0;whiteSpace=wrap;html=1;fillColor=#dae8fc;strokeColor=#6c8ebf;" vertex="1" parent="1">
          <mxGeometry x="780" y="1320" width="40" height="40" as="geometry" />
        </mxCell>
        <mxCell id="J9iAy3apQVE2GlNHFhud-306" value="80" style="rounded=0;whiteSpace=wrap;html=1;fillColor=#dae8fc;strokeColor=#6c8ebf;" vertex="1" parent="1">
          <mxGeometry x="780" y="1360" width="40" height="40" as="geometry" />
        </mxCell>
        <mxCell id="J9iAy3apQVE2GlNHFhud-307" value="80" style="rounded=0;whiteSpace=wrap;html=1;fillColor=#dae8fc;strokeColor=#6c8ebf;" vertex="1" parent="1">
          <mxGeometry x="780" y="1400" width="40" height="40" as="geometry" />
        </mxCell>
        <mxCell id="J9iAy3apQVE2GlNHFhud-308" value="80" style="rounded=0;whiteSpace=wrap;html=1;fillColor=#dae8fc;strokeColor=#6c8ebf;" vertex="1" parent="1">
          <mxGeometry x="780" y="1440" width="40" height="40" as="geometry" />
        </mxCell>
        <mxCell id="J9iAy3apQVE2GlNHFhud-309" value="80" style="rounded=0;whiteSpace=wrap;html=1;fillColor=#dae8fc;strokeColor=#6c8ebf;" vertex="1" parent="1">
          <mxGeometry x="780" y="1480" width="40" height="40" as="geometry" />
        </mxCell>
        <mxCell id="J9iAy3apQVE2GlNHFhud-310" value="90" style="rounded=0;whiteSpace=wrap;html=1;fillColor=#dae8fc;strokeColor=#6c8ebf;" vertex="1" parent="1">
          <mxGeometry x="820" y="1200" width="40" height="40" as="geometry" />
        </mxCell>
        <mxCell id="J9iAy3apQVE2GlNHFhud-312" value="90" style="rounded=0;whiteSpace=wrap;html=1;fillColor=#dae8fc;strokeColor=#6c8ebf;" vertex="1" parent="1">
          <mxGeometry x="820" y="1240" width="40" height="40" as="geometry" />
        </mxCell>
        <mxCell id="J9iAy3apQVE2GlNHFhud-313" value="90" style="rounded=0;whiteSpace=wrap;html=1;fillColor=#dae8fc;strokeColor=#6c8ebf;" vertex="1" parent="1">
          <mxGeometry x="820" y="1280" width="40" height="40" as="geometry" />
        </mxCell>
        <mxCell id="J9iAy3apQVE2GlNHFhud-314" value="90" style="rounded=0;whiteSpace=wrap;html=1;fillColor=#dae8fc;strokeColor=#6c8ebf;" vertex="1" parent="1">
          <mxGeometry x="820" y="1320" width="40" height="40" as="geometry" />
        </mxCell>
        <mxCell id="J9iAy3apQVE2GlNHFhud-315" value="90" style="rounded=0;whiteSpace=wrap;html=1;fillColor=#dae8fc;strokeColor=#6c8ebf;" vertex="1" parent="1">
          <mxGeometry x="820" y="1360" width="40" height="40" as="geometry" />
        </mxCell>
        <mxCell id="J9iAy3apQVE2GlNHFhud-316" value="90" style="rounded=0;whiteSpace=wrap;html=1;fillColor=#dae8fc;strokeColor=#6c8ebf;" vertex="1" parent="1">
          <mxGeometry x="820" y="1400" width="40" height="40" as="geometry" />
        </mxCell>
        <mxCell id="J9iAy3apQVE2GlNHFhud-317" value="90" style="rounded=0;whiteSpace=wrap;html=1;fillColor=#dae8fc;strokeColor=#6c8ebf;" vertex="1" parent="1">
          <mxGeometry x="820" y="1440" width="40" height="40" as="geometry" />
        </mxCell>
        <mxCell id="J9iAy3apQVE2GlNHFhud-318" value="90" style="rounded=0;whiteSpace=wrap;html=1;fillColor=#dae8fc;strokeColor=#6c8ebf;" vertex="1" parent="1">
          <mxGeometry x="820" y="1480" width="40" height="40" as="geometry" />
        </mxCell>
        <mxCell id="J9iAy3apQVE2GlNHFhud-319" value="100" style="rounded=0;whiteSpace=wrap;html=1;" vertex="1" parent="1">
          <mxGeometry x="860" y="1240" width="40" height="40" as="geometry" />
        </mxCell>
        <mxCell id="J9iAy3apQVE2GlNHFhud-320" value="100" style="rounded=0;whiteSpace=wrap;html=1;" vertex="1" parent="1">
          <mxGeometry x="860" y="1280" width="40" height="40" as="geometry" />
        </mxCell>
        <mxCell id="J9iAy3apQVE2GlNHFhud-321" value="100" style="rounded=0;whiteSpace=wrap;html=1;" vertex="1" parent="1">
          <mxGeometry x="860" y="1320" width="40" height="40" as="geometry" />
        </mxCell>
        <mxCell id="J9iAy3apQVE2GlNHFhud-322" value="100" style="rounded=0;whiteSpace=wrap;html=1;" vertex="1" parent="1">
          <mxGeometry x="860" y="1360" width="40" height="40" as="geometry" />
        </mxCell>
        <mxCell id="J9iAy3apQVE2GlNHFhud-323" value="100" style="rounded=0;whiteSpace=wrap;html=1;" vertex="1" parent="1">
          <mxGeometry x="860" y="1400" width="40" height="40" as="geometry" />
        </mxCell>
        <mxCell id="J9iAy3apQVE2GlNHFhud-324" value="100" style="rounded=0;whiteSpace=wrap;html=1;" vertex="1" parent="1">
          <mxGeometry x="860" y="1440" width="40" height="40" as="geometry" />
        </mxCell>
        <mxCell id="J9iAy3apQVE2GlNHFhud-325" value="100" style="rounded=0;whiteSpace=wrap;html=1;" vertex="1" parent="1">
          <mxGeometry x="860" y="1480" width="40" height="40" as="geometry" />
        </mxCell>
        <mxCell id="J9iAy3apQVE2GlNHFhud-326" value="110" style="rounded=0;whiteSpace=wrap;html=1;" vertex="1" parent="1">
          <mxGeometry x="900" y="1200" width="40" height="40" as="geometry" />
        </mxCell>
        <mxCell id="J9iAy3apQVE2GlNHFhud-327" value="110" style="rounded=0;whiteSpace=wrap;html=1;" vertex="1" parent="1">
          <mxGeometry x="900" y="1240" width="40" height="40" as="geometry" />
        </mxCell>
        <mxCell id="J9iAy3apQVE2GlNHFhud-328" value="110" style="rounded=0;whiteSpace=wrap;html=1;" vertex="1" parent="1">
          <mxGeometry x="900" y="1280" width="40" height="40" as="geometry" />
        </mxCell>
        <mxCell id="J9iAy3apQVE2GlNHFhud-329" value="110" style="rounded=0;whiteSpace=wrap;html=1;" vertex="1" parent="1">
          <mxGeometry x="900" y="1320" width="40" height="40" as="geometry" />
        </mxCell>
        <mxCell id="J9iAy3apQVE2GlNHFhud-330" value="110" style="rounded=0;whiteSpace=wrap;html=1;" vertex="1" parent="1">
          <mxGeometry x="900" y="1360" width="40" height="40" as="geometry" />
        </mxCell>
        <mxCell id="J9iAy3apQVE2GlNHFhud-331" value="110" style="rounded=0;whiteSpace=wrap;html=1;" vertex="1" parent="1">
          <mxGeometry x="900" y="1400" width="40" height="40" as="geometry" />
        </mxCell>
        <mxCell id="J9iAy3apQVE2GlNHFhud-332" value="110" style="rounded=0;whiteSpace=wrap;html=1;" vertex="1" parent="1">
          <mxGeometry x="900" y="1440" width="40" height="40" as="geometry" />
        </mxCell>
        <mxCell id="J9iAy3apQVE2GlNHFhud-333" value="110" style="rounded=0;whiteSpace=wrap;html=1;" vertex="1" parent="1">
          <mxGeometry x="900" y="1480" width="40" height="40" as="geometry" />
        </mxCell>
      </root>
    </mxGraphModel>
  </diagram>
</mxfile>
